<?xml version="1.0" encoding="UTF-8" standalone="no"?>
<svg
   xmlns:dc="http://purl.org/dc/elements/1.1/"
   xmlns:cc="http://creativecommons.org/ns#"
   xmlns:rdf="http://www.w3.org/1999/02/22-rdf-syntax-ns#"
   xmlns:svg="http://www.w3.org/2000/svg"
   xmlns="http://www.w3.org/2000/svg"
   version="1.1"
   id="svg2"
   viewBox="0 0 776.44011 462.96044"
   height="462.96045"
   width="776.44012">
  <defs
     id="defs4" />
  <metadata
     id="metadata7">
    <rdf:RDF>
      <cc:Work
         rdf:about="">
        <dc:format>image/svg+xml</dc:format>
        <dc:type
           rdf:resource="http://purl.org/dc/dcmitype/StillImage" />
        <dc:title></dc:title>
      </cc:Work>
    </rdf:RDF>
  </metadata>
  <g
     transform="translate(-12.582256,-382.23728)"
     id="layer1">
    <path
       id="path4201"
       d="m 636.9491,843.58999 c -12.30738,-6.72828 -20.51288,-26.05666 -18.06083,-42.54306 3.85729,-25.93457 23.96731,-48.19616 59.20359,-65.53777 6.79803,-3.34566 12.70653,-6.62823 13.13,-7.29459 1.63099,-2.56646 0.631,-2.66052 -3.94942,-0.37147 -6.3134,3.15509 -9.32909,3.8024 -17.593,3.77628 -11.66894,-0.0369 -18.7779,-4.71176 -23.4388,-15.41343 -0.67001,-1.53838 -1.2182,-3.71802 -1.2182,-4.84364 0,-1.64589 -1.34753,-0.8046 -6.88277,4.29706 -12.58547,11.59964 -23.57514,16.75552 -35.83228,16.81098 -16.79068,0.076 -28.72959,-8.83906 -33.71893,-25.17862 l -2.1223,-6.95031 -3.89881,5.6609 c -8.21875,11.93326 -24.55249,23.50779 -37.39938,26.50223 -11.16726,2.60294 -25.75319,-0.38146 -32.24441,-6.59747 -2.31115,-2.21317 -5.67385,-8.52402 -7.33195,-13.76005 -0.50078,-1.5814 -1.53204,-0.97263 -6.97065,4.11493 -11.30731,10.57743 -21.76707,15.38721 -33.44914,15.38112 -13.31081,-0.007 -20.92804,-5.69113 -24.61298,-18.36688 l -1.58548,-5.45385 -8.72546,8.68643 c -11.73179,11.67931 -20.79973,16.33207 -32.82576,16.84292 -14.29864,0.60738 -24.58034,-4.33436 -29.55711,-14.20615 -1.14864,-2.2784 -2.22244,-4.29437 -2.38623,-4.47994 -0.16379,-0.18556 -3.37098,2.20132 -7.12708,5.30417 -10.55181,8.71668 -17.72492,11.84056 -28.35551,12.34882 -7.73896,0.37 -9.41383,0.12799 -14.12684,-2.0413 -10.67637,-4.9141 -16.67321,-14.48053 -17.60571,-28.08544 l -0.54754,-7.98846 -2.08715,2.8998 c -14.65401,20.3597 -43.71922,35.34187 -68.64643,35.38502 -17.86918,0.0309 -30.3837,-6.19137 -38.5865,-19.18545 -8.30168,-13.15071 -9.5478,-33.4643 -3.20799,-52.29494 11.71075,-34.78356 42.01229,-64.75252 67.0193,-66.28371 7.01463,-0.42951 8.25825,-0.20225 14.25852,2.60561 8.4692,3.96322 16.69116,11.75382 20.54602,19.46807 2.44829,4.89947 3.00573,7.25546 2.98473,12.61492 -0.0504,12.87223 -6.66556,26.59075 -18.64807,38.67249 -15.73605,15.86638 -33.03798,19.58906 -50.55054,10.87645 -2.59843,-1.29274 -4.91693,-2.03729 -5.15221,-1.65455 -1.36726,2.22412 -2.81859,14.17502 -2.38198,19.61425 0.99802,12.43317 6.54767,18.03659 17.75862,17.93066 16.03806,-0.15154 37.71113,-15.48662 53.49204,-37.84902 2.71691,-3.85 5.40516,-7.33061 5.97389,-7.73469 2.09471,-1.48825 6.64846,-0.72169 8.8198,1.48469 l 2.21427,2.25 5.24234,-10.5 c 8.42984,-16.88432 26.3349,-39.38145 40.10154,-50.38631 18.30516,-14.63287 36.64768,-20.72536 48.96346,-16.26326 3.72506,1.34962 9.81721,6.89128 10.72697,9.75767 0.84154,2.65145 1.75297,2.36845 3.86005,-1.19854 1.00406,-1.69975 3.1727,-4.62475 4.8192,-6.5 5.70027,-6.49225 13.5593,-3.62883 16.20995,5.90605 4.47414,16.09431 2.92631,20.91341 -19.5218,60.78038 -15.71926,27.91679 -21.42043,42.77927 -18.92631,49.33931 1.15892,3.04819 2.18225,3.13021 7.71491,0.61835 8.24061,-3.74127 20.68257,-17.48525 29.60264,-32.70048 6.09787,-10.40131 7.63845,-11.78826 12.26082,-11.03816 3.55765,0.57733 3.62314,0.52428 5.69777,-4.61548 6.53997,-16.20237 26.28368,-50.83996 37.4103,-65.63114 5.69711,-7.57346 8.90398,-9.12273 13.92614,-6.72783 4.82702,2.30185 7.63737,8.38583 8.19662,17.74442 0.74654,12.49275 -1.57634,18.60275 -16.4645,43.30748 -14.47305,24.01591 -22.3201,42.48517 -22.3201,52.53386 0,4.88043 0.10579,5.07368 2.77749,5.07368 9.59594,0 28.50439,-23.77074 53.69293,-67.5 30.63652,-53.18738 32.81881,-55.9874 40.5284,-52.00061 4.57232,2.36444 7.27015,8.61095 7.78775,18.03167 0.76998,14.01408 -2.06454,21.37785 -20.5775,53.45805 -5.24049,9.08099 -11.56718,20.78589 -14.05931,26.01089 -3.99658,8.37924 -4.53814,10.32582 -4.59045,16.5 l -0.0593,7 3.22006,0.31113 c 9.44503,0.91258 21.29595,-11.20881 39.63789,-40.54255 3.12811,-5.00271 6.7036,-6.34372 10.73898,-4.02773 l 2.70934,1.55494 1.74805,-4.64789 c 1.28301,-3.41141 20.09105,-41.50726 31.19562,-63.18701 0.15187,-0.29651 -1.64392,-1.05264 -3.99064,-1.6803 -8.90249,-2.38105 -16.91924,-11.05058 -15.20703,-16.44528 1.0141,-3.19513 6.79644,-4.91908 18.31579,-5.46069 5.84757,-0.27493 11.58351,-0.68997 12.74653,-0.92231 1.46433,-0.29254 3.87805,-3.57901 7.84925,-10.68738 7.5871,-13.58076 16.12377,-26.24014 19.75521,-29.29579 5.46536,-4.5988 10.65862,-2.94955 13.44388,4.26945 2.33257,6.04569 2.31133,19.79497 -0.0404,26.13714 -2.05853,5.55148 -2.0449,7.12427 0.0617,7.12427 3.47129,0 10.59315,4.40029 13.40558,8.28275 3.40052,4.69428 3.8354,9.79199 1.07115,12.55624 -1.50465,1.50465 -4.13229,1.96159 -14.45294,2.51333 -6.93768,0.37088 -13.19763,0.91041 -13.91101,1.19894 -1.94644,0.78726 -24.22921,38.67289 -32.86313,55.87457 -10.45008,20.82008 -14.02038,30.9517 -14.66913,41.62731 -0.41283,6.7935 -0.17509,9.21967 1.15562,11.79296 6.64112,12.84252 27.07559,-2.57778 44.11662,-33.29136 4.73298,-8.53041 6.67595,-10.54492 10.21296,-10.58904 2.45312,-0.0306 3.12421,-0.86725 6.21633,-7.75 4.97407,-11.07177 14.15712,-27.85737 22.79925,-41.67449 13.76819,-22.01269 16.42476,-24.71419 22.74362,-23.12826 3.57988,0.8985 8.18532,7.79861 9.53074,14.27944 2.26031,10.88786 -0.84099,20.48867 -13.71434,42.45599 -17.07069,29.12973 -22.26039,39.94885 -24.41437,50.89731 -2.18046,11.08304 0.61217,13.56207 9.14299,8.11626 11.61672,-7.41575 23.60611,-24.68801 44.88455,-64.66195 15.2382,-28.62667 23.43109,-42.48465 28.11948,-47.5631 8.90777,-9.64885 18.27701,-1.47419 18.27416,15.9442 -0.002,9.67317 -4.52531,20.99079 -25.82862,64.6189 -13.90395,28.4746 -15.70877,32.5 -14.5716,32.5 1.6365,0 15.59512,-11.24751 23.40659,-18.86045 4.31133,-4.20175 10.76118,-11.35205 14.333,-15.88955 5.82061,-7.39426 6.84113,-8.25 9.83864,-8.25 4.17673,0 7.48958,3.80398 7.48958,8.59991 0,12.13053 -14.54742,32.43426 -31,43.26648 -3.575,2.35375 -13.51802,7.73421 -22.09561,11.95657 l -15.59556,7.67704 -5.79448,13.5 c -13.34022,31.08006 -25.6507,54.33987 -36.52704,69.01535 -6.28266,8.47721 -16.37831,18.12317 -21.93506,20.95804 -6.16083,3.143 -14.52274,3.6299 -19.12555,1.1136 z m 16.999,-42.08699 c 9.77283,-14.30474 25.11356,-42 23.26429,-42 -1.06985,0 -15.81123,15.24545 -19.82218,20.5 -7.58538,9.93721 -13.70138,22.84692 -15.87069,33.5 l -0.71272,3.5 3.6671,-3.5 c 2.01691,-1.925 6.2803,-7.325 9.4742,-12 z M 319.02244,710.94781 c 17.21038,-8.77395 53,-67.85817 53,-87.49643 0,-2.49704 -0.45947,-3.94493 -1.25,-3.939 -6.81961,0.0512 -32.84902,24.75103 -44.50413,42.23087 -8.34123,12.5098 -13.4641,22.77449 -15.67307,31.40409 -1.85295,7.2388 -2.0655,17.46296 -0.3977,19.13076 1.26692,1.26692 4.76462,0.73966 8.8249,-1.33029 z M 214.98788,659.00242 c 10.37992,-5.44324 26.37129,-27.373 28.67325,-39.32105 l 0.63996,-3.32164 -3.8389,1.604 c -10.90986,4.55843 -28.71281,23.54076 -36.78145,39.21809 -1.53145,2.9756 -1.52488,3.20985 0.10283,3.66418 2.43977,0.681 8.19635,-0.2662 11.20431,-1.84358 z M 43.768365,732.47952 C 32.952316,729.75118 20.514841,719.77649 15.439629,709.76025 9.9703051,698.9662 12.011602,687.2575 24.532326,657.60534 c 11.668549,-27.634 23.380783,-50.3622 40.160097,-77.93275 5.131511,-8.43172 9.328332,-15.63172 9.326271,-16 -0.0021,-0.36827 -2.012795,-1.49576 -4.468295,-2.50553 -9.015452,-3.7074 -15.887369,-13.58637 -13.339957,-19.17733 1.287659,-2.8261 4.08201,-3.9843 13.197754,-5.47017 3.787164,-0.61731 14.587164,-3.59525 24,-6.61765 32.915234,-10.56884 34.107564,-10.85158 45.614244,-10.81639 15.45874,0.0473 24.86319,4.11965 32.44539,14.04976 9.5949,12.56605 11.93436,36.72136 5.17681,53.45137 -4.34029,10.74547 -8.94795,17.23708 -20.6222,29.05405 -10.58813,10.71757 -25.98786,22.45412 -31.94205,24.34391 -1.68946,0.53621 -1.38524,1.13846 2.57619,5.09989 8.29528,8.29528 11.57136,19.25592 9.37529,31.36651 -3.22143,17.76508 -19.48696,34.82578 -44.498524,46.67387 -15.798447,7.48379 -37.968626,11.82576 -47.764981,9.35464 z m 11.765298,-27.42399 c 8.442691,-1.99144 21.247454,-7.57184 30.251454,-13.18378 9.113799,-5.68038 21.649163,-17.29551 24.323743,-22.53812 6.59898,-12.93508 -4.52185,-19.76625 -26.292524,-16.15064 -7.608434,1.26358 -11.354354,1.41741 -16.346869,0.6713 l -6.476655,-0.96792 -3.883857,7.07658 c -4.313069,7.85864 -12.192157,25.12395 -13.937063,30.54005 -1.70543,5.29357 -3.019213,13.17582 -2.445353,14.67127 0.670017,1.74604 7.1207,1.69431 14.807124,-0.11874 z m 45.768017,-89.93919 c 28.24539,-12.94582 51.27548,-33.95419 56.34737,-51.40088 4.83538,-16.63309 -4.87018,-19.1352 -35.07155,-9.04148 l -15.94495,5.32902 -1.28799,6.47426 c -1.55348,7.80879 -6.244463,17.78317 -18.834684,40.04796 -5.218087,9.22777 -9.487434,17.03512 -9.487434,17.34965 0,0.826 15.815474,-4.8793 24.279238,-8.75853 z"
       style="fill:#cd669a;fill-opacity:1" />
    <path
       id="path4265"
       d="m 507.0738,571.32185 c -2.82132,-2.37398 -5.25199,-7.42578 -6.59405,-13.70475 l -0.58419,-2.7332 -6.37993,4.36788 c -8.53565,5.84373 -15.29537,8.05837 -24.5904,8.05635 -8.85325,-0.002 -13.89442,-1.54823 -18.64468,-5.71902 -3.58839,-3.15064 -7.35532,-9.43911 -7.35532,-12.27886 0,-1.06675 -2.13375,0.29738 -6.25,3.99571 -3.4375,3.08849 -9.60284,7.28694 -13.70076,9.32988 -6.65101,3.31575 -8.26108,3.71121 -15,3.68424 -10.12313,-0.0405 -15.37721,-2.81499 -19.35644,-10.2214 -5.48508,-10.20921 -4.59156,-23.99683 2.72708,-42.0807 3.23549,-7.99466 3.28517,-8.31097 1.22613,-7.80591 -1.18031,0.28952 -4.40821,0.82123 -7.17311,1.18157 l -5.0271,0.65517 -3.2693,8.29581 c -8.11247,20.58527 -23.48217,39.61202 -37.60346,46.55077 -6.00155,2.94897 -7.93869,3.40711 -14.5,3.42929 -6.46434,0.0219 -8.55403,-0.43912 -14.27375,-3.14879 -12.46279,-5.90412 -20.73297,-17.29578 -22.96106,-31.62746 -0.93958,-6.04356 -0.85063,-8.99839 0.51401,-17.07561 5.23119,-30.96317 28.84363,-60.75009 53.18272,-67.08962 12.61275,-3.2852 19.15031,-0.86333 29.73091,11.01394 8.72485,9.7941 10.64849,13.72783 12.01771,24.57542 1.04097,8.24703 1.26817,8.84127 3.16889,8.28829 10.81108,-3.14527 21.30793,-12.8496 33.63786,-31.09816 4.99093,-7.38669 10.14208,-13.9168 11.44699,-14.51136 6.48978,-2.95694 13.43349,6.03754 13.45291,17.42613 0.0153,8.98968 -3.09664,16.3522 -19.55851,46.27283 -10.86856,19.75439 -14.43172,28.52489 -14.43172,35.52283 0,4.3507 0.25799,4.97717 2.04966,4.97717 3.67246,0 7.5101,-2.75288 15.13126,-10.85422 11.30493,-12.01721 21.91504,-28.76901 44.38292,-70.07407 9.09346,-16.71747 15.4678,-25.07171 19.12988,-25.07171 3.21616,0 6.99852,3.62729 8.85713,8.49399 1.27832,3.34722 1.5932,6.45668 1.25152,12.35892 -0.5421,9.36452 -2.63477,14.20451 -17.44561,40.34873 -11.49362,20.28863 -16.02729,30.31322 -16.91211,37.39504 -0.85384,6.83395 0.013,9.40332 3.1724,9.40332 7.7718,0 21.79965,-14.19833 32.38295,-32.77651 4.32675,-7.59527 7.01637,-9.32457 10.9719,-7.0544 l 2.79284,1.60287 8.59437,-12.67664 c 4.7269,-6.97216 9.8958,-14.42209 11.48645,-16.55541 l 2.89208,-3.87878 -1.98857,-4.4955 c -1.50785,-3.40874 -1.84501,-5.70772 -1.39471,-9.50986 0.8917,-7.52901 6.70683,-18.82 13.19723,-25.62451 6.74264,-7.06894 11.26312,-9.47619 16.09333,-8.57004 6.94821,1.30349 9.09267,9.98255 5.75493,23.29141 -0.88008,3.50923 -1.36747,6.61308 -1.0831,6.89745 0.79602,0.79602 9.50849,-3.3139 16.18325,-7.63411 8.1052,-5.24604 10.25092,-5.65841 14.50963,-2.78847 4.86224,3.27667 9.99037,13.43746 9.99037,19.79477 0,6.81976 -1.16973,9.24492 -8.87764,18.40572 -18.55995,22.05839 -27.12236,37.96071 -27.12236,50.37233 0,9.64288 3.27718,12.13957 10.85805,8.2721 6.38162,-3.25566 17.19392,-17.15367 22.26654,-28.62118 3.13873,-7.0956 9.23544,-9.50085 11.74485,-4.63352 4.46158,8.65387 0.16034,24.36606 -9.66471,35.30461 -12.67958,14.1166 -30.77537,19.32024 -44.59562,12.82396 -13.647,-6.41485 -18.79631,-24.99275 -12.14924,-43.83255 2.51718,-7.13443 10.48029,-21.73196 16.21515,-29.72468 4.74494,-6.61306 5.18044,-7.58107 3.16368,-7.03204 -1.28629,0.35016 -4.67707,0.92221 -7.53507,1.2712 l -5.19638,0.63454 -11.30362,19.11862 c -17.61873,29.79979 -26.2278,47.5434 -29.80122,61.42137 -1.25114,4.85903 -4.07153,8.19725 -6.92568,8.19725 -1.05781,0 -3.27547,-1.1378 -4.92816,-2.52844 z M 327.33804,543.00387 c 7.35674,-5.55439 14.53969,-15.44281 21.68669,-29.85503 l 6.05069,-12.20145 -5.89708,-5.79855 c -3.29204,-3.23703 -7.00462,-8.14492 -8.40423,-11.11007 l -2.50714,-5.31151 -3.74118,4.56561 c -9.66406,11.79372 -18.81725,29.63772 -21.62148,42.15076 -1.43247,6.39199 -1.40479,17.7427 0.0499,20.46082 1.77951,3.32505 7.72639,2.12583 14.38382,-2.90058 z m 32.30344,-70.90358 c -0.22912,-1.5125 -0.41659,-0.275 -0.41659,2.75 0,3.025 0.18747,4.2625 0.41659,2.75 0.22913,-1.5125 0.22913,-3.9875 0,-5.5 z m -149.71181,94.45794 c -3.5155,-1.7786 -7.04755,-8.7255 -7.71261,-15.16932 -1.05002,-10.17374 2.45154,-21.9513 14.07544,-47.34295 l 5.63273,-12.30434 0.0192,-10.69566 c 0.0361,-20.11189 2.59627,-59.11653 5.06696,-77.19566 2.70734,-19.81073 7.39724,-25.2265 16.65493,-19.23265 1.23259,0.79804 3.70058,4.41566 5.48442,8.03915 3.08978,6.27622 3.26041,7.22989 3.60366,20.14084 0.21894,8.23519 -0.26539,19.19428 -1.23442,27.93146 -0.87712,7.90835 -1.59475,16.11704 -1.59475,18.24154 l 0,3.86273 26.08175,-26.43296 c 29.55566,-29.95365 52.53847,-51.42211 57.13568,-53.37096 2.76262,-1.17114 3.40863,-1.10284 5.69919,0.60252 3.51371,2.61603 4.74643,8.67766 3.18428,15.65806 -2.68922,12.01672 -13.50931,25.14347 -47.6009,57.74861 -12.65,12.09845 -29.10131,28.40796 -36.55847,36.24336 l -13.55847,14.24619 -9.61303,20.91105 c -5.28716,11.50108 -11.1494,24.29246 -13.02719,28.42529 -4.89834,10.78074 -6.68063,12.25257 -11.7384,9.6937 z"
       style="fill:#ffffff;fill-opacity:1" />
  </g>
</svg>
