<?xml version="1.0" encoding="UTF-8" standalone="no"?>
<svg
   xmlns:dc="http://purl.org/dc/elements/1.1/"
   xmlns:cc="http://creativecommons.org/ns#"
   xmlns:rdf="http://www.w3.org/1999/02/22-rdf-syntax-ns#"
   xmlns:svg="http://www.w3.org/2000/svg"
   xmlns="http://www.w3.org/2000/svg"
   viewBox="0 0 600 200"
   height="200"
   width="600"
   version="1.1"
   id="svg5587">
  <metadata
     id="metadata5593">
    <rdf:RDF>
      <cc:Work
         rdf:about="">
        <dc:format>image/svg+xml</dc:format>
        <dc:type
           rdf:resource="http://purl.org/dc/dcmitype/StillImage" />
        <dc:title></dc:title>
      </cc:Work>
    </rdf:RDF>
  </metadata>
  <defs
     id="defs5591" />
  <path
     id="path6137"
     d="m 244.74673,183.72636 c -2.33268,-1.63387 -3.20506,-4.5622 -3.20506,-10.75835 0,-9.21028 -1.70593,-11.54504 -6.59012,-9.01932 -5.67233,2.93328 -10.2024,15.89668 -6.46892,18.51171 0.72108,0.50508 1.15769,1.07169 0.97023,1.25915 -0.18746,0.18746 -2.32672,0.26102 -4.75391,0.16346 -4.22367,-0.16975 -4.3424,-0.21362 -2.7665,-1.02193 l 1.64656,-0.84455 0,-8.91636 0,-8.91636 -1.79625,-0.62618 c -3.01649,-1.05155 -1.87676,-2.3053 2.09563,-2.3053 3.78846,0 3.99543,0.28412 3.54402,4.86517 -0.22423,2.27564 -0.1702,4.11567 0.12084,4.11508 0.28954,-5.9e-4 1.28332,-1.19914 2.20841,-2.66346 2.73937,-4.3361 5.39481,-6.31679 8.46872,-6.31679 3.54972,0 4.27072,0.35761 5.85388,2.90349 1.22369,1.96783 1.35932,2.93078 1.35932,9.65168 l 0,7.46575 1.72169,0.60976 c 1.58042,0.55971 1.88748,0.41795 3.74222,-1.72766 2.24107,-2.59254 2.64436,-2.27024 0.84725,0.67713 -1.04144,1.70803 -3.91374,3.77129 -5.25007,3.77129 -0.2724,0 -1.05897,-0.39484 -1.74794,-0.87741 z m 150.14886,-0.42126 c -1.69879,-0.84088 -3.24189,-2.26352 -4.38331,-4.04112 -1.59445,-2.48314 -1.74294,-3.14127 -1.56532,-6.93733 0.34612,-7.39744 4.23793,-10.71975 12.59891,-10.75528 4.4323,-0.0189 4.70928,0.0623 6.5727,1.92419 5.50494,5.50058 -0.92313,12.87959 -9.53995,10.95123 -4.46457,-0.99913 -4.32172,-1.58407 0.33263,-1.36205 4.57389,0.21817 6.59636,-0.57109 7.77792,-3.03531 1.04737,-2.18432 0.0412,-5.31678 -2.07097,-6.44714 -3.97088,-2.12516 -9.05268,0.0104 -11.11407,4.6705 -1.33331,3.01416 -1.08211,6.1726 0.78379,9.85479 1.56433,3.08708 3.24382,4.08117 6.89501,4.08117 2.53861,0 3.65261,-0.37205 6.1537,-2.05515 1.67967,-1.13033 3.05394,-1.92527 3.05394,-1.76653 0,1.56063 -2.1822,3.84024 -4.72209,4.93287 -3.80903,1.6386 -7.44262,1.63359 -10.77289,-0.0149 z m -214.32114,-0.28373 c 0.2339,-1.18846 1.22577,-1.73153 4.38487,-2.40085 l 2.39502,-0.50741 0.15553,-28.65595 0.15554,-28.65595 -8.83748,0.24044 c -11.14572,0.30327 -12.05869,0.69639 -13.6241,5.86662 -0.60966,2.01357 -1.33136,3.79878 -1.60377,3.96714 -0.27242,0.16836 -0.49529,-2.67363 -0.49529,-6.31553 l 0,-6.62164 26.86563,0 26.86563,0 0.37113,2.24533 c 0.48468,2.93228 0.48447,6.97577 -4.1e-4,8.23936 -0.27583,0.71882 -0.6636,0.19538 -1.37016,-1.84952 -1.68311,-4.8712 -2.7716,-5.30753 -13.85639,-5.55445 l -9.53644,-0.21242 0,28.51841 0,28.51842 1.64658,0.66635 c 0.90561,0.3665 2.58672,0.83545 3.73577,1.04212 1.31122,0.23583 2.16369,0.76255 2.28923,1.41446 0.18338,0.95219 -0.63019,1.03872 -9.76722,1.03872 -8.92429,0 -9.94701,-0.10293 -9.77367,-0.98365 z m 28.71067,-0.27136 c -2.10829,-1.96418 -2.47124,-3.67902 -2.47124,-11.67599 0,-6.11102 -0.16283,-7.51513 -0.89813,-7.74484 -3.06596,-0.95784 -3.00619,-0.91468 -2.07886,-1.50114 0.48474,-0.30656 2.12297,-0.56151 3.64051,-0.56655 l 2.75915,-0.009 0.30547,9.57343 c 0.32328,10.13153 0.67371,11.38299 3.18739,11.38299 1.61638,0 3.79594,-2.51348 4.2805,-4.93629 0.18424,-0.92122 0.56963,-1.81995 0.85641,-1.99719 0.84187,-0.52031 0.59961,1.92377 -0.45093,4.54935 -1.5893,3.97203 -6.36455,5.50205 -9.13027,2.92539 z m 45.12978,0.65625 c 0.20353,-0.32932 0.75831,-0.59876 1.23285,-0.59876 0.73499,0 0.86279,-3.1427 0.86279,-21.21602 l 0,-21.21604 -1.64658,-0.18945 c -2.77573,-0.31939 -1.8277,-1.37641 1.40337,-1.56471 l 3.04995,-0.17774 0.39289,7.30712 c 0.21609,4.01891 0.3929,11.3064 0.3929,16.19442 0,5.76832 0.2191,8.88733 0.62432,8.88733 0.34338,0 2.70865,-2.15552 5.25616,-4.79005 3.61067,-3.73398 4.99978,-4.79003 6.30073,-4.79003 3.2682,0 5.15118,2.01258 3.96196,4.23465 -0.70987,1.32642 -2.3718,1.55717 -2.3718,0.32932 0,-0.45364 -0.3368,-1.1043 -0.74845,-1.44591 -1.17032,-0.97119 -3.95859,0.54623 -7.26761,3.95515 l -2.92664,3.01501 2.46852,0.66469 c 2.46109,0.66272 2.84487,1.03498 7.42962,7.207 2.69734,3.63116 3.76343,3.73253 5.23155,0.49741 l 1.1755,-2.59031 0.0132,1.97316 c 0.025,3.75282 -4.32651,6.15702 -7.78951,4.30368 -0.62569,-0.33486 -2.2151,-2.45376 -3.53204,-4.70866 -1.65222,-2.82899 -2.95442,-4.33176 -4.20105,-4.84814 -3.03932,-1.25891 -3.62443,-0.58931 -3.62443,4.14788 0,3.97923 0.0783,4.21831 1.49689,4.57437 2.92231,0.73345 1.43244,1.44339 -3.02911,1.44339 -2.86487,0 -4.39018,-0.21976 -4.15595,-0.59876 z m 29.86766,-0.34925 c -3.31379,-1.6348 -4.14241,-5.16463 -1.7418,-7.41988 1.31109,-1.23171 1.52524,-1.27694 1.86415,-0.39377 0.21059,0.5488 0.24538,1.7172 0.0773,2.59646 -0.41631,2.17779 0.0179,3.06209 2.0089,4.0917 3.11845,1.61261 8.2336,0.58279 9.16532,-1.84524 0.20457,-0.53309 0.37194,-1.74932 0.37194,-2.70273 0,-2.17829 -1.67347,-3.32091 -5.68817,-3.88381 -6.34773,-0.88999 -8.60432,-2.99491 -7.80106,-7.2767 0.69874,-3.7246 6.57574,-5.84513 12.59109,-4.5431 2.36901,0.51276 2.3969,0.55067 2.56781,3.48823 l 0.17277,2.96984 -2.28223,-2.6179 c -1.95852,-2.24658 -2.62648,-2.62692 -4.70939,-2.68154 -3.03812,-0.0797 -5.62841,1.50899 -5.62841,3.45196 0,1.56286 2.44834,2.83845 6.88569,3.58748 3.8254,0.64574 5.68235,1.60137 6.61453,3.40402 1.76418,3.41154 0.38989,7.36768 -3.27491,9.42741 -2.78561,1.5656 -8.37288,1.7391 -11.19353,0.34757 z m 38.68978,0.469 c 0,-0.99447 1.49752,-1.91602 3.11353,-1.91602 l 1.67651,0 0,-20.7441 0,-20.74412 -5.83786,0.32595 c -7.23616,0.40402 -8.76256,1.04736 -9.66986,4.07563 -1.19871,4.00094 -1.92607,3.44248 -1.73377,-1.33116 l 0.17698,-4.39317 18.99695,-0.15808 18.99696,-0.15809 0.35228,1.40363 c 0.19376,0.77198 0.26533,2.59448 0.15903,4.04998 l -0.19325,2.64637 -0.99296,-2.19713 c -0.54613,-1.20843 -1.60163,-2.52289 -2.34555,-2.92103 -0.74394,-0.39814 -4.27304,-0.86231 -7.84247,-1.0315 l -6.48987,-0.30761 0.15765,20.57267 0.15765,20.57265 2.84408,0.80312 c 1.56425,0.4417 2.84409,1.05688 2.84409,1.36706 0,0.32144 -3.08979,0.56396 -7.18505,0.56396 -3.95179,0 -7.18507,-0.21556 -7.18507,-0.47901 z m 24.50207,-0.88244 c -1.11115,-0.74879 -2.65905,-2.29807 -3.43979,-3.44284 -1.23626,-1.81268 -1.38422,-2.59582 -1.14608,-6.06607 0.32075,-4.67418 1.88605,-7.64885 5.15557,-9.79759 3.25846,-2.14148 6.77631,-2.74153 10.46416,-1.78492 2.07445,0.53811 3.3156,0.60345 3.80158,0.20012 0.39685,-0.32936 1.13281,-0.50922 1.63546,-0.3997 0.76161,0.16595 0.94847,1.77897 1.12122,9.67896 0.16132,7.37698 0.39664,9.60242 1.06081,10.03256 1.72648,1.11814 3.23675,0.2681 4.8811,-2.74725 1.59534,-2.92546 1.89913,-3.0324 1.70094,-0.59876 -0.19372,2.37893 -1.43983,4.56436 -3.08875,5.41704 -2.4817,1.28333 -3.86079,1.07555 -6.1393,-0.92501 -1.86898,-1.64098 -2.11467,-1.71005 -2.86493,-0.80539 -2.35523,2.83998 -9.73395,3.53554 -13.14199,1.23885 z m 10.82448,-1.70991 c 1.1526,-0.69885 2.2936,-1.57352 2.53554,-1.94372 0.24194,-0.3702 0.44402,-3.68474 0.44907,-7.36563 0.009,-6.52181 -0.031,-6.72419 -1.56847,-7.93351 -2.02881,-1.59586 -5.12127,-1.59082 -7.97486,0.013 -2.79642,1.57168 -4.17234,3.86428 -4.62796,7.71132 -0.94597,7.98721 5.15311,13.17679 11.18668,9.51854 z m 19.54696,1.60306 c -0.87137,-0.80757 -1.63879,-1.54852 -1.70538,-1.64658 -0.0666,-0.0981 -0.26866,-9.04602 -0.44906,-19.88437 l -0.328,-19.70609 -2.09565,-0.73171 -2.09564,-0.73171 1.72046,-0.68158 c 0.94625,-0.37487 2.63025,-0.5109 3.74222,-0.3023 l 2.02175,0.37928 0,19.91092 c 0,19.23669 0.042,19.96432 1.24098,21.48853 0.68253,0.86771 1.69293,1.57164 2.24533,1.56432 1.66959,-0.0221 3.61694,-1.94296 4.53915,-4.47735 0.76801,-2.11064 0.8765,-2.20414 0.91368,-0.78742 0.15373,5.85773 -5.7904,9.27554 -9.74984,5.60606 z m 38.13035,0.59546 c -2.19821,-0.95621 -3.19061,-2.51204 -3.19061,-5.00203 0,-2.01636 1.33159,-3.41289 2.73918,-2.87275 0.74725,0.28674 0.87367,0.86777 0.57433,2.63958 -0.54371,3.2182 1.08242,4.61115 5.38306,4.61115 3.80526,0 6.27231,-1.80733 6.27231,-4.59503 0,-2.46601 -1.77793,-3.89125 -5.47334,-4.38759 -6.13347,-0.82379 -8.29803,-2.43209 -8.29803,-6.16552 0,-4.23948 4.34481,-6.55134 10.97744,-5.84104 3.64105,0.38993 3.94066,0.53418 4.27547,2.05857 0.19802,0.90159 0.12705,2.26908 -0.15772,3.03888 -0.51034,1.37962 -0.5366,1.36915 -1.83503,-0.73175 -2.08077,-3.36675 -6.41918,-4.19725 -9.21857,-1.76471 -1.17882,1.02436 -1.39944,3.4307 -0.3727,4.06527 0.37132,0.22948 2.97506,0.98635 5.78609,1.68191 5.81267,1.4383 7.42991,2.87289 7.42991,6.59079 0,4.58571 -3.71109,7.55501 -9.40045,7.52143 -1.9759,-0.0117 -4.447,-0.39288 -5.49134,-0.84716 z M 204.69954,156.29545 c -0.23051,-0.91504 -1.08602,-2.01314 -1.90114,-2.44022 l -1.48203,-0.77652 1.55125,-1.01641 c 1.01877,-0.66752 1.55124,-1.55734 1.55124,-2.59229 0,-1.48877 0.0606,-1.52111 1.09497,-0.58496 0.60223,0.54502 1.9589,0.99094 3.01483,0.99094 1.77241,0 1.86754,0.0978 1.23846,1.27324 -0.50041,0.93502 -0.506,1.65826 -0.0211,2.72257 0.906,1.98845 0.86625,2.06623 -0.83749,1.63861 -1.13296,-0.28436 -1.77702,-0.0318 -2.64388,1.03642 l -1.14604,1.41234 -0.4191,-1.66371 z m 123.36222,-24.52548 c -16.09412,-1.06593 -19.20832,-1.11163 -29.93775,-0.43933 -16.36384,1.02534 -37.87232,0.51061 -44.06995,-1.05466 -6.28655,-1.58774 -8.66349,-3.14833 -9.13438,-5.99723 -0.20408,-1.23468 -0.37994,-3.05319 -0.3908,-4.04114 -0.0194,-1.76255 -0.0408,-1.74976 -1.14454,0.68079 -1.60048,3.52463 -5.1511,7.24486 -7.38225,7.7349 -1.56096,0.34285 -2.10422,0.15288 -3.19746,-1.1181 -1.42547,-1.65721 -2.20982,-5.53479 -4.40186,-21.76156 -0.67428,-4.99135 -1.38569,-9.491434 -1.58092,-10.000184 -0.19521,-0.508757 -1.34152,-1.250184 -2.54733,-1.647618 -1.20582,-0.397442 -4.15862,-1.75767 -6.56181,-3.022738 -2.40318,-1.265067 -4.78323,-2.300123 -5.289,-2.300123 -0.50577,0 -0.80461,-0.336799 -0.66409,-0.748443 0.28398,-0.83191 1.49,-0.848669 10.51239,-0.146078 6.02309,0.469022 6.21416,0.529215 7.64818,2.409299 1.01894,1.335907 1.81909,3.744603 2.60466,7.840865 1.78948,9.33091 4.34526,18.90687 4.89849,18.35363 0.27805,-0.27805 1.61108,-4.80766 2.96229,-10.06581 1.91113,-7.437085 2.38832,-10.259179 2.14866,-12.707302 -0.38311,-3.913409 -2.48697,-7.817842 -5.00192,-9.282781 -1.89398,-1.103217 -1.96374,-1.098859 -6.78428,0.423949 -2.67885,0.84625 -5.11834,1.385543 -5.42109,1.198426 -0.30276,-0.187111 -0.55047,-0.956505 -0.55047,-1.709762 0,-0.753258 -0.43157,-2.23465 -0.95903,-3.291985 -0.52747,-1.05733 -0.82197,-2.446561 -0.65444,-3.087175 0.18481,-0.706747 -0.0839,-1.382154 -0.68334,-1.717624 -0.89102,-0.498644 -0.85064,-0.738565 0.41172,-2.446004 l 1.39966,-1.893132 -1.25418,-1.16844 c -1.43669,-1.338487 -1.71786,-2.252002 -0.34156,-1.109781 1.37854,1.144089 1.54667,0.507667 0.82076,-3.106909 -0.81395,-4.052973 -0.0605,-8.24691 2.42625,-13.505134 1.92023,-4.060307 5.31106,-7.142615 11.46724,-10.423815 8.98564,-4.789304 12.65938,-12.052728 9.55476,-18.890896 -2.3847,-5.252441 -7.8065,-5.747731 -16.40813,-1.498888 -0.93413,0.461425 0.92942,-2.560378 2.79357,-4.52982 2.47585,-2.615716 7.43483,-4.395719 13.31227,-4.778383 8.18856,-0.533131 14.7637,2.161776 20.30106,8.320665 11.00053,12.235231 9.46629,33.392311 -3.60179,49.668519 -3.01866,3.759725 -8.71819,8.587373 -12.36416,10.472787 -0.91944,0.475459 -1.6717,1.086566 -1.6717,1.358012 0,1.466141 3.9313,5.46595 7.42944,7.558898 3.87119,2.31614 4.09139,2.579562 6.68621,7.998259 1.9859,4.147086 3.60366,6.523706 6.22514,9.145186 7.45098,7.45098 12.67304,7.69436 21.82456,1.01719 5.19053,-3.78713 7.21065,-4.64785 11.94656,-5.0901 4.84974,-0.45287 8.54579,0.38557 17.38183,3.94301 12.67858,5.10448 26.66618,9.03229 32.1655,9.03229 l 1.73862,0 -1.46487,-2.24533 c -2.96627,-4.54664 -4.87162,-12.79543 -6.27339,-27.159125 -0.99054,-10.149939 -4.53338,-17.897182 -8.18445,-17.897182 -2.43484,0 -2.95148,-1.413415 -2.09383,-5.728234 0.53833,-2.708325 0.63814,-6.012806 0.33434,-11.069058 -0.39336,-6.546853 -0.33087,-7.321055 0.68115,-8.439313 0.97816,-1.080867 3.87629,-2.904878 4.61549,-2.904878 0.14562,0 0.28922,1.549278 0.31914,3.442841 0.0299,1.893563 0.56109,5.194199 1.1804,7.334748 3.07632,10.632853 4.33023,14.410805 6.04142,18.202511 1.02556,2.272473 2.9358,8.152282 4.24498,13.066246 2.88765,10.83877 5.18073,16.498754 8.99179,22.194324 4.07484,6.08979 6.22789,8.48443 7.12817,7.92803 0.41229,-0.25481 2.16273,-2.65351 3.88985,-5.33043 4.75238,-7.36584 10.18755,-12.028408 21.33338,-18.300887 7.63192,-4.294978 16.99143,-13.162317 20.06129,-19.006363 1.59094,-3.028658 3.05127,-3.142829 7.2799,-0.569129 1.8972,1.154706 4.99875,2.520256 6.89231,3.034551 10.9899,2.984877 10.61061,2.730598 11.55113,7.743985 l 0.39875,2.125538 -3.2057,-1.099913 c -2.13599,-0.732875 -5.78378,-1.213741 -10.93165,-1.441047 l -7.72595,-0.341141 -5.74604,5.531418 c -3.16031,3.042274 -8.37025,7.62836 -11.57763,10.191295 -6.84254,5.467693 -11.8397,11.449403 -18.30105,21.906733 -2.53418,4.10141 -6.08951,8.98973 -7.90075,10.86293 -2.78481,2.88007 -3.78293,3.50817 -6.46608,4.06892 -4.58232,0.95766 -21.08812,0.6896 -41.73369,-0.67777 z M 191.66736,83.674557 c -0.65452,-0.887007 -1.67794,-1.457884 -2.61356,-1.457884 -1.45819,0 -1.49199,-0.06992 -0.65306,-1.3503 0.62045,-0.946913 0.72662,-1.777799 0.35539,-2.781325 -0.66342,-1.793367 -0.4411,-2.015691 1.35227,-1.352277 1.00352,0.371229 1.83442,0.265064 2.78132,-0.355378 1.28149,-0.839664 1.35031,-0.805661 1.35031,0.667198 0,1.007495 0.54189,1.907011 1.54467,2.564055 l 1.54468,1.012111 -1.60666,0.656721 c -0.88366,0.361199 -1.91556,1.376328 -2.29312,2.255845 l -0.68646,1.599125 -1.07578,-1.457891 z"
     style="fill:#cd669a;fill-opacity:1" />
</svg>
