<?xml version="1.0" encoding="UTF-8" standalone="no"?>
<svg
   xmlns:dc="http://purl.org/dc/elements/1.1/"
   xmlns:cc="http://creativecommons.org/ns#"
   xmlns:rdf="http://www.w3.org/1999/02/22-rdf-syntax-ns#"
   xmlns:svg="http://www.w3.org/2000/svg"
   xmlns="http://www.w3.org/2000/svg"
   viewBox="0 0 600 200"
   height="200"
   width="600"
   version="1.1"
   id="svg4190">
  <metadata
     id="metadata4196">
    <rdf:RDF>
      <cc:Work
         rdf:about="">
        <dc:format>image/svg+xml</dc:format>
        <dc:type
           rdf:resource="http://purl.org/dc/dcmitype/StillImage" />
        <dc:title></dc:title>
      </cc:Work>
    </rdf:RDF>
  </metadata>
  <defs
     id="defs4194" />
  <path
     id="path4200"
     d="m 281.39586,191.3882 c -2.22928,-0.4663 -4.1214,-1.98886 -4.83207,-3.8883 -0.52531,-1.40402 -0.72981,-3.52424 -0.5103,-5.29072 0.48133,-3.87344 2.30787,-5.66536 6.34731,-6.22699 2.46136,-0.34222 5.07412,-0.008 6.82678,0.87185 2.44492,1.22811 3.62621,3.9355 3.36211,7.70561 -0.24716,3.5286 -1.57249,5.51547 -4.36018,6.53656 -0.79175,0.29002 -1.44156,0.36349 -3.53693,0.39996 -1.41185,0.0246 -2.89537,-0.024 -3.29672,-0.10797 z m 5.89893,-1.78741 c 1.27982,-0.39287 2.26554,-1.21281 2.86337,-2.38177 0.45755,-0.89466 0.51327,-1.18524 0.57859,-3.01721 0.12287,-3.44625 -0.64367,-5.10943 -2.81645,-6.1109 -0.88288,-0.40694 -1.26306,-0.47072 -3.17429,-0.53253 -2.71918,-0.0879 -4.08949,0.25734 -5.32007,1.34053 -1.23334,1.08564 -1.56543,2.11597 -1.57137,4.87538 -0.004,1.97564 0.0404,2.32486 0.39839,3.11922 0.4241,0.94091 1.58377,2.148 2.37654,2.47374 1.66739,0.68507 4.83309,0.796 6.66529,0.23354 z m 45.98218,1.71904 c -0.48004,-0.11653 -1.30789,-0.38845 -1.83967,-0.60428 -0.92676,-0.37615 -0.96674,-0.4182 -0.96422,-1.01429 0.005,-1.01702 0.17816,-1.13903 1.01481,-0.71222 1.88771,0.96303 5.08679,1.30523 7.05069,0.75418 1.94157,-0.54476 3.03461,-2.04476 2.47172,-3.39194 -0.43688,-1.0456 -1.10543,-1.33401 -4.97804,-2.14745 -2.96194,-0.62215 -4.41694,-1.29401 -5.00702,-2.312 -0.5573,-0.96145 -0.49204,-2.81697 0.13168,-3.74435 0.51653,-0.76796 1.60934,-1.5244 2.79616,-1.93546 1.6515,-0.572 5.79112,-0.34166 7.83412,0.43593 0.41847,0.15928 0.44087,0.22029 0.32122,0.87466 -0.0707,0.3869 -0.15801,0.73282 -0.19391,0.76872 -0.0359,0.0359 -0.681,-0.11221 -1.43357,-0.32915 -2.63763,-0.76032 -5.1124,-0.71634 -6.737,0.11971 -0.98813,0.50851 -1.4688,1.16523 -1.4688,2.00672 0,1.32834 0.86353,1.8002 4.69835,2.56724 4.42781,0.88567 5.6415,1.73434 5.78881,4.04789 0.13465,2.11448 -1.1578,3.76283 -3.53934,4.51401 -1.27295,0.40151 -4.48523,0.45665 -5.94599,0.10208 z m 15.05062,-0.0893 c -0.67326,-0.18168 -1.54562,-0.49432 -1.93855,-0.69478 -0.7064,-0.36039 -0.71311,-0.37254 -0.59601,-1.08153 0.0652,-0.39437 0.1363,-0.73729 0.15814,-0.76205 0.0218,-0.0248 0.45584,0.13889 0.96446,0.36364 2.5566,1.12971 5.87845,1.29886 7.72883,0.39356 1.14147,-0.55848 1.68077,-1.23177 1.79444,-2.24026 0.0713,-0.63208 0.0114,-0.80691 -0.45858,-1.34234 -0.63764,-0.72621 -1.32906,-0.98073 -4.28947,-1.57903 -3.72444,-0.75271 -4.87143,-1.33101 -5.51201,-2.77915 -0.92557,-2.0924 0.45348,-4.50307 3.01581,-5.27192 1.9411,-0.58244 5.22691,-0.47186 7.31111,0.24604 l 0.91802,0.3162 -0.0499,0.74245 c -0.0275,0.40835 -0.0692,0.76181 -0.0929,0.78547 -0.0237,0.0237 -0.52284,-0.10633 -1.10931,-0.28886 -4.36581,-1.35878 -8.58798,-0.33271 -8.58798,2.08706 0,1.31996 0.91471,1.78947 5.12167,2.62884 4.10413,0.81884 5.3808,1.81235 5.37962,4.18642 -0.002,1.84876 -0.92395,3.14378 -2.88591,4.04897 -0.93608,0.43189 -1.23093,0.47806 -3.33708,0.52266 -1.85826,0.0393 -2.5498,-0.0158 -3.53439,-0.28139 z m 26.46612,0.0198 c -3.40214,-0.88924 -4.96284,-3.27738 -4.96284,-7.59395 0,-3.81187 1.39389,-6.18593 4.2139,-7.17709 1.54034,-0.54138 3.89804,-0.75111 5.80679,-0.51655 3.39647,0.41741 5.0892,1.56992 6.0998,4.15316 0.45415,1.16088 0.62479,4.42893 0.31381,6.00969 -0.54804,2.78552 -2.22669,4.52151 -5.00583,5.17673 -1.50012,0.35368 -5.02199,0.32537 -6.46563,-0.052 z m 6.58859,-1.74819 c 1.40616,-0.52319 2.53094,-1.68006 2.94067,-3.02459 0.4313,-1.41531 0.41789,-4.24459 -0.0266,-5.61249 -0.48997,-1.5078 -1.54934,-2.51408 -3.16261,-3.0041 -1.05705,-0.32107 -1.53067,-0.36334 -3.41325,-0.30469 -2.06081,0.0642 -2.25176,0.10053 -3.33684,0.63472 -2.02562,0.99722 -2.75415,2.48435 -2.73517,5.58331 0.0222,3.62287 1.2151,5.31238 4.23855,6.00302 1.5164,0.34637 4.1837,0.2128 5.49528,-0.27518 z m 68.1819,1.79816 c -0.52555,-0.12761 -1.38306,-0.42108 -1.90557,-0.65216 l -0.95004,-0.42015 0.12973,-0.70943 c 0.0713,-0.39018 0.17056,-0.75024 0.22045,-0.80015 0.0499,-0.0499 0.41245,0.0735 0.80568,0.27402 1.88242,0.96035 5.08329,1.30099 7.04712,0.74996 2.20546,-0.61881 3.28857,-2.69909 2.0931,-4.02005 -0.42971,-0.47483 -1.89967,-0.96333 -4.5758,-1.52065 -2.73442,-0.56948 -4.33123,-1.24937 -4.94055,-2.10361 -0.33082,-0.46379 -0.39123,-0.76425 -0.39123,-1.9456 0,-1.2765 0.0443,-1.45992 0.5134,-2.12492 0.70379,-0.99776 2.19942,-1.79501 3.85047,-2.05252 1.91742,-0.29905 4.66772,-0.0341 6.44056,0.62043 l 0.70764,0.26125 -0.16083,0.7158 c -0.0885,0.39368 -0.17918,0.73412 -0.20158,0.75654 -0.0224,0.0224 -0.51464,-0.10674 -1.09384,-0.28701 -3.51631,-1.0944 -7.11517,-0.65257 -8.21591,1.00864 -0.5012,0.75642 -0.48778,1.4096 0.0419,2.0391 0.57759,0.68643 1.3252,0.95586 4.35934,1.57111 2.86884,0.58173 4.10785,1.04969 4.91419,1.85601 0.71432,0.71433 0.97372,1.55449 0.86164,2.79063 -0.17617,1.94265 -1.57842,3.41653 -3.79582,3.98965 -1.26238,0.3263 -4.41599,0.328 -5.75406,0.003 z m -207.91139,-7.5401 0,-7.62949 4.74892,0.0688 c 5.35858,0.0776 5.7713,0.15525 7.11557,1.33853 1.0041,0.88383 1.36103,1.78528 1.35942,3.43325 -0.002,1.65466 -0.55626,2.79821 -1.73632,3.57984 -1.33103,0.88165 -2.1583,1.03568 -6.1397,1.14325 l -3.63656,0.0983 0,2.79852 0,2.79853 -0.85566,0 -0.85567,0 0,-7.62949 z m 9.79613,-0.0433 c 1.24568,-0.61348 1.58417,-1.21098 1.58417,-2.79646 0,-1.53932 -0.2631,-2.02403 -1.46978,-2.70788 -0.73119,-0.41436 -0.87205,-0.42955 -4.47707,-0.48257 l -3.72212,-0.0548 0,3.27818 0,3.27819 3.63656,-0.0575 c 3.40224,-0.0538 3.68885,-0.0832 4.44824,-0.45722 z m 7.8305,0.0454 0,-7.62745 4.76682,0.0548 4.76682,0.0549 1.17207,0.59897 c 1.02613,0.52438 1.23166,0.71327 1.65064,1.51695 0.37893,0.72687 0.47856,1.14664 0.47856,2.01629 0,2.17418 -1.04224,3.48605 -3.21046,4.04093 l -0.87233,0.22324 2.73241,3.33164 2.73241,3.33162 -1.07148,0.052 c -0.95258,0.0462 -1.10367,0.008 -1.36139,-0.34226 -0.15944,-0.2168 -1.27915,-1.66486 -2.48823,-3.21788 l -2.19834,-2.82369 -2.6931,-0.0471 -2.69309,-0.0471 0,3.25586 0,3.25586 -0.85565,0 -0.85566,0 0,-7.62747 z m 9.56825,-0.75801 c 1.15095,-0.65226 1.46978,-1.19054 1.46978,-2.48142 0,-1.28204 -0.33593,-1.8652 -1.3801,-2.39585 -0.59912,-0.30447 -1.07508,-0.34803 -4.31005,-0.39448 l -3.63657,-0.0522 0,2.93365 0,2.93363 3.551,-0.0577 c 3.41919,-0.0556 3.57901,-0.0736 4.30594,-0.48557 z m 28.59424,0.7701 0,-7.61539 6.24633,0 6.24633,0 0,0.85566 0,0.85566 -5.39067,0 -5.39066,0 0,2.48142 0,2.48142 4.535,0 4.535,0 0,0.77009 0,0.77009 -4.535,0 -4.535,0 0,3.50822 0,3.50821 -0.85567,0 -0.85566,0 0,-7.61538 z m 16.77096,-0.002 0,-7.61751 6.20355,0.0449 6.20355,0.0449 0.0526,0.72731 0.0526,0.72732 -5.4005,0 -5.40051,0 0,2.48141 0,2.48142 4.62057,0 4.62058,0 0,0.68453 0,0.68452 -4.62058,0 -4.62057,0 0,2.82369 0,2.82368 5.66975,0 5.66976,0 -0.10608,0.64174 c -0.0584,0.35297 -0.10691,0.73801 -0.10795,0.85567 -0.002,0.1673 -1.40047,0.21391 -6.41934,0.21391 l -6.41746,0 0,-7.61752 z m 48.60156,0.002 0,-7.61539 0.85566,0 0.85566,0 0,7.61539 0,7.61538 -0.85566,0 -0.85566,0 0,-7.61538 z m 28.57909,0 0,-7.61539 0.82511,0 0.82513,0 5.63512,5.91989 c 3.09932,3.25594 5.76818,6.08604 5.93081,6.28911 0.28149,0.35151 0.29585,0.0677 0.29948,-5.91989 l 0.004,-6.28911 0.77009,0 0.77009,0 0,7.61539 0,7.61538 -0.55756,0 c -0.50992,0 -1.08383,-0.54834 -6.71694,-6.41779 l -6.15937,-6.4178 -0.0448,6.4178 -0.0448,6.41779 -0.76803,0 -0.76804,0 0,-7.61538 z m 19.79663,5.42274 c 0.64188,-1.20596 2.47623,-4.63396 4.07632,-7.61783 l 2.90924,-5.42516 1.02569,0.0453 1.02568,0.0453 3.04848,5.64737 c 1.67666,3.10605 3.51129,6.51372 4.07699,7.5726 l 1.02852,1.92524 -0.99551,-0.002 -0.99549,-0.002 -1.0083,-1.96839 -1.00831,-1.96838 -5.23666,0.0453 -5.23665,0.0453 -0.99609,1.92525 -0.9961,1.92524 -0.94244,0 -0.94244,0 1.16707,-2.19264 z m 10.20093,-7.53273 -2.18316,-4.24911 -2.18464,4.16497 c -1.20155,2.29075 -2.18464,4.20286 -2.18464,4.24913 0,0.0463 1.96552,0.0842 4.36783,0.0842 l 4.3678,0 -2.18319,-4.24913 z m 10.56079,2.10999 0,-7.61539 0.85566,0 0.85566,0 0,6.75972 0,6.75973 5.26232,-1.1e-4 5.26232,-1e-4 -0.0593,0.85576 -0.0593,0.85577 -6.05868,0 -6.05868,0 0,-7.61538 z M 172.42653,168.07551 c -1.87306,-5.81415 -15.54093,-47.99633 -15.61089,-48.17885 -0.066,-0.17217 0.99616,-0.20715 5.19627,-0.17113 l 5.27925,0.0453 5.58742,17.5073 c 3.07309,9.62901 5.61594,17.5358 5.65078,17.57064 0.0349,0.0349 2.55732,-6.84231 5.6055,-15.28256 3.04817,-8.44028 5.7721,-15.78705 6.05317,-16.32618 0.61068,-1.17138 1.44142,-2.06455 2.35264,-2.52941 0.60393,-0.30811 1.00967,-0.34074 4.22589,-0.33988 1.9568,5.2e-4 3.83792,0.0787 4.18027,0.17386 0.65181,0.18105 1.80086,1.28127 2.25448,2.15869 0.13939,0.2696 2.77546,7.57506 5.85794,16.23436 3.08249,8.65929 5.65425,15.80126 5.71501,15.87103 0.0608,0.0698 2.72564,-7.80312 5.92193,-17.49533 l 5.81142,-17.6222 5.17675,-0.003 c 2.84721,-0.002 5.17675,0.0273 5.17675,0.0641 0,0.0369 -3.77347,11.32947 -8.38548,25.09458 -4.61202,13.76509 -8.38548,25.0553 -8.38548,25.08933 0,0.034 -2.30276,0.0618 -5.11722,0.0618 l -5.11724,0 -0.16984,-0.47061 c -1.69619,-4.69989 -12.91608,-35.2378 -13.00405,-35.39395 -0.0695,-0.1233 -3.08212,7.56118 -6.97088,17.78093 l -6.84855,17.99807 -4.90738,0.0454 -4.90739,0.0455 -0.62107,-1.92786 z m 77.88888,1.64832 c -4.07795,-0.73655 -7.09259,-3.56986 -8.26615,-7.76891 -0.29043,-1.03919 -0.31088,-2.18168 -0.31088,-17.36992 0,-17.86451 -0.0443,-17.06186 1.07176,-19.42352 0.81485,-1.72428 2.38559,-3.30213 4.14777,-4.16654 2.57738,-1.2643 1.26265,-1.19703 24.71106,-1.26442 l 21.03173,-0.0605 -0.11223,1.33386 c -0.29213,3.47192 -1.45225,6.36291 -2.9101,7.25186 -0.51878,0.31633 -1.10884,0.32707 -17.99836,0.32769 l -17.46203,5.7e-4 -0.75965,0.38505 c -1.40923,0.71429 -1.45202,0.8971 -1.45202,6.20355 l 0,4.62057 14.41789,0.0438 14.4179,0.0438 0,4.3629 0,4.3629 -14.46969,0 -14.46968,0 0.0518,5.34788 c 0.0505,5.21434 0.0615,5.36345 0.43954,5.97142 0.21326,0.34293 0.67532,0.76648 1.02679,0.94122 0.60971,0.30312 1.45226,0.31824 18.35124,0.32941 19.60928,0.0129 18.14466,-0.0728 19.27671,1.12884 0.29575,0.31392 0.70905,0.91262 0.91843,1.33044 0.50816,1.01401 1.02023,3.56765 1.02302,5.10161 l 0.002,1.24071 -20.66422,-0.0153 c -17.07793,-0.0127 -20.89828,-0.0576 -22.01286,-0.25895 z m 56.96662,0.15493 c -3.03178,-0.4021 -5.47233,-2.11333 -6.77038,-4.74713 -1.23405,-2.50396 -1.18099,-1.40111 -1.1843,-24.61103 l -0.003,-20.83535 4.96283,0 4.96284,0 0,19.62618 c 0,19.50055 0.002,19.63087 0.3544,20.35829 0.20805,0.42976 0.61443,0.89378 0.98402,1.1236 l 0.6296,0.39151 14.13107,0.0855 14.13106,0.0855 0.67982,0.44999 c 1.33543,0.88395 2.18274,3.16384 2.3983,6.45324 l 0.11396,1.73895 -17.43843,-0.0257 c -9.59113,-0.0141 -17.66945,-0.0563 -17.95183,-0.0937 z m 47.70266,-0.0704 c -3.05874,-0.50968 -5.17823,-2.04293 -6.46305,-4.67541 -1.26693,-2.59582 -1.17958,-0.87902 -1.23929,-24.35563 l -0.0537,-21.09205 4.9692,0 4.96918,0 0.007,19.4663 c 0.008,20.63543 -0.007,20.23212 0.78908,21.12755 0.17367,0.1953 0.62381,0.49655 1.00029,0.66944 0.64762,0.29738 1.4988,0.31454 15.7848,0.3181 l 15.10026,0.004 -0.43517,0.98401 c -0.23935,0.54121 -1.17521,2.50495 -2.07971,4.36387 l -1.64456,3.37987 -14.903,-0.02 c -8.19665,-0.011 -15.3075,-0.0874 -15.8019,-0.16979 z m 36.40885,0.023 c 0,-0.25896 21.69305,-45.63881 22.20376,-46.44821 0.71613,-1.13497 2.16828,-2.4293 3.41297,-3.04207 l 1.15826,-0.5702 6.16438,0 6.16435,0 1.11236,0.52817 c 1.35615,0.64393 2.80784,1.94553 3.5418,3.17566 0.43682,0.73209 19.50843,40.4976 21.7177,45.28278 l 0.57283,1.24071 -5.86848,0 -5.86847,0 -2.10054,-4.49222 c -1.15531,-2.47072 -2.21076,-4.6655 -2.34549,-4.87727 l -0.24497,-0.38505 -16.67134,0 c -13.15071,0 -16.69997,0.0452 -16.80692,0.21392 -0.0746,0.11765 -1.11758,2.29317 -2.31783,4.83448 l -2.18228,4.62057 -5.82105,0.045 c -3.8011,0.0294 -5.82104,-0.0145 -5.82104,-0.1263 z m 46.54798,-17.26126 c 0,-0.1937 -4.62475,-10.26001 -7.01004,-15.25816 -2.14897,-4.50295 -3.44248,-6.99375 -4.0756,-7.84794 -0.78244,-1.05561 -2.45226,-1.50552 -3.68002,-0.99154 -0.97176,0.40681 -1.78372,1.55454 -3.43801,4.85962 -2.24335,4.482 -9.00636,18.97539 -9.00636,19.30099 0,0.0444 6.12225,0.0807 13.60501,0.0807 7.48276,0 13.60502,-0.0647 13.60502,-0.14373 z M 243.49279,111.77038 c -0.15346,-0.11765 -0.79316,-1.13803 -1.42154,-2.2675 -1.50864,-2.71164 -2.64108,-4.33817 -4.09778,-5.8856 -3.05226,-3.24235 -7.07755,-5.27755 -12.32152,-6.22979 -2.97984,-0.5411 -9.95372,-0.52697 -16.51427,0.0335 -5.9343,0.50693 -10.92072,0.56586 -12.44724,0.1471 -4.63447,-1.27136 -6.04553,-4.822595 -4.49161,-11.304127 0.51979,-2.168075 0.48753,-2.357884 -0.6022,-3.543237 -0.85288,-0.927714 -0.94123,-1.096895 -0.94123,-1.802222 0,-0.428122 0.14673,-1.066012 0.32606,-1.41754 0.33692,-0.660405 1.71592,-2.055048 2.38728,-2.414346 0.37395,-0.200133 0.36347,-0.220886 -0.50711,-1.003605 -1.06685,-0.959196 -1.51288,-1.863071 -1.51795,-3.076119 -0.004,-0.872717 0.0277,-0.932363 1.01821,-1.932043 1.0922,-1.102423 1.50682,-2.005168 1.29979,-2.830032 -0.0696,-0.277354 -0.80927,-1.153648 -1.78259,-2.111868 -1.91251,-1.882855 -2.58402,-2.980446 -2.71636,-4.439959 -0.11897,-1.311917 0.30225,-2.147282 1.43277,-2.841503 1.77107,-1.087574 7.77141,-5.168983 9.6433,-6.559344 2.32,-1.723186 3.5773,-2.959981 4.09389,-4.027119 0.20616,-0.425871 0.66952,-2.224945 1.02969,-3.997941 2.19143,-10.787537 4.59943,-14.60366 12.11832,-19.204749 0.96492,-0.590474 1.89726,-1.277804 2.07187,-1.5274 0.1746,-0.249597 0.48798,-0.987428 0.69638,-1.63963 0.72809,-2.278432 1.83974,-4.014038 3.84742,-6.006914 7.64325,-7.586881 21.65533,-9.400455 34.26518,-4.43492 7.29406,2.872277 12.60357,6.123985 28.21348,17.27879 11.3625,8.119614 16.17514,11.092537 22.55861,13.935149 11.48045,5.112346 20.93767,6.016338 30.60035,2.925013 2.73985,-0.876541 4.12462,-1.456159 10.75893,-4.503362 6.39644,-2.937938 10.25379,-4.513307 14.74447,-6.02173 9.09015,-3.053388 15.17363,-3.785255 20.49731,-2.465909 5.08442,1.260049 9.32639,4.573012 11.55493,9.024342 0.67208,1.342459 1.29147,3.464982 1.29147,4.425712 0,0.655785 -0.25811,1.244867 -0.54542,1.244867 -0.10512,0 -0.89176,-0.676486 -1.74808,-1.5033 -2.64822,-2.556921 -4.87024,-3.905513 -7.71774,-4.684086 -1.14524,-0.313135 -1.83067,-0.375171 -4.19275,-0.379467 -4.1168,-0.0075 -7.21607,0.616841 -13.43388,2.706165 -4.15557,1.396367 -7.36632,2.697435 -14.83056,6.009674 -11.247,4.990828 -15.52504,6.545639 -21.10721,7.671205 -3.44756,0.695155 -5.15094,0.861695 -8.81331,0.861695 -4.55923,0 -7.55223,-0.410974 -11.86383,-1.629035 -8.89689,-2.513453 -16.78944,-7.188707 -41.10161,-24.347079 -6.74983,-4.763707 -9.81088,-6.797962 -12.64372,-8.402493 -6.69208,-3.790448 -12.8567,-5.382132 -18.95198,-4.893367 -5.13666,0.411893 -8.86042,1.67623 -12.07828,4.100963 -1.58194,1.192027 -2.22609,1.871668 -3.75283,3.959618 -0.92897,1.270469 -1.34688,1.671326 -2.59562,2.489775 -4.39025,2.877447 -7.46825,6.043438 -8.94638,9.202115 -0.69546,1.486169 -1.12726,3.37513 -1.43835,6.292278 -0.44342,4.157954 -0.89759,5.357805 -2.78614,7.360606 -1.94132,2.058753 -6.82454,5.957849 -10.32436,8.243652 -1.84419,1.204486 -1.93647,1.314478 -1.78466,2.127196 0.0902,0.482662 0.38456,0.900402 1.17722,1.670411 0.58135,0.564737 1.35273,1.248353 1.71416,1.519147 1.74071,1.304165 1.7469,4.056884 0.0136,6.087397 -0.41897,0.490853 -0.76178,1.012681 -0.76178,1.159627 0,0.321517 1.41648,1.707808 2.23622,2.188558 0.47492,0.278529 0.5975,0.464608 0.63982,0.971335 0.0464,0.554931 -0.0191,0.67538 -0.57099,1.050388 -0.74862,0.508701 -1.03537,0.895557 -1.37291,1.852249 l -0.25489,0.722447 0.58237,0.60991 c 1.25511,1.314449 1.29208,2.148696 0.19327,4.361015 -1.31897,2.655556 -1.38664,4.581558 -0.20043,5.704248 1.05644,0.999881 2.68711,1.201069 6.61962,0.816701 3.91715,-0.382863 12.83593,-0.539255 15.66578,-0.274702 7.85861,0.734677 13.01257,2.974376 16.24156,7.05789 1.1857,1.49949 2.55874,4.00873 3.23916,5.9196 0.99271,2.78792 1.81501,7.10961 1.47399,7.74681 -0.20661,0.38604 -0.65796,0.43887 -1.06746,0.12493 z m 77.39426,-9.48195 c -0.32943,-0.0317 -1.48457,-0.13918 -2.56698,-0.23879 -6.78179,-0.62411 -12.15574,-2.45926 -18.57517,-6.34321 -7.55052,-4.568306 -13.27458,-9.599856 -25.18873,-22.14133 -4.83775,-5.092462 -6.7923,-6.899505 -10.58124,-9.782668 -1.70986,-1.301107 -2.886,-1.956994 -4.56355,-2.544941 -1.59176,-0.557875 -1.81937,-0.770506 -1.44174,-1.34684 0.41897,-0.639436 1.34419,-0.870561 3.44895,-0.861582 3.62041,0.01546 7.48443,1.524777 11.80812,4.612402 2.25768,1.612242 6.42667,5.131099 9.82899,8.29619 7.01354,6.524519 10.82947,9.565237 15.66973,12.486368 13.68252,8.25752 29.02231,9.517373 46.67445,3.833363 4.55926,-1.468081 12.41126,-4.55076 19.55372,-7.676742 7.2225,-3.161007 12.79289,-5.268678 17.66717,-6.684735 14.28771,-4.150807 23.62463,-3.399307 29.77761,2.396702 1.78015,1.676885 2.71043,2.963195 3.79953,5.253783 1.03633,2.179553 1.56673,4.174321 1.67736,6.308249 0.074,1.427951 0.0441,1.675248 -0.24609,2.032538 -0.50979,0.627759 -0.95381,0.351448 -1.99019,-1.238484 -1.79724,-2.757215 -4.00955,-4.746319 -6.70439,-6.027963 -5.48601,-2.609088 -12.73024,-2.35118 -22.45206,0.79933 -4.07334,1.320029 -6.92069,2.493637 -16.97625,6.997177 -10.89913,4.881333 -15.92147,6.873333 -21.58035,8.559383 -8.45964,2.52053 -14.58888,3.44989 -22.40303,3.39687 -2.22029,-0.015 -4.30643,-0.0534 -4.63586,-0.0851 z m -1.36906,-21.804727 c -5.82197,-0.645624 -10.77603,-2.186882 -17.57741,-5.468486 -5.12328,-2.471942 -8.57685,-4.682857 -13.02621,-8.339155 -3.12853,-2.570903 -5.15223,-4.437197 -13.20724,-12.179939 -5.02418,-4.829417 -8.82947,-8.316918 -11.01907,-10.098864 -2.0637,-1.679493 -5.36421,-3.81804 -7.50425,-4.862342 -5.40964,-2.639819 -9.87595,-3.317401 -15.51387,-2.353602 -2.6277,0.449206 -3.09751,0.377257 -3.09751,-0.474375 0,-0.781524 1.49579,-2.027467 3.80576,-3.170077 2.80053,-1.385263 4.28546,-1.707685 7.9168,-1.718983 4.38681,-0.01364 7.07443,0.674083 11.63699,2.977775 3.95112,1.994961 6.64833,3.879611 13.37028,9.342311 11.3222,9.201169 19.30048,14.69454 27.35921,18.837937 8.0629,4.145554 13.51811,5.790911 21.81936,6.581 8.75562,0.833334 18.58911,-1.876607 38.07692,-10.49334 5.20689,-2.302275 7.53511,-3.238002 10.96876,-4.408393 12.00431,-4.091788 20.61967,-4.472883 27.10817,-1.199112 3.45023,1.740816 5.72461,4.111438 7.46073,7.776424 1.32334,2.793569 2.07948,6.59688 1.45999,7.343446 -0.44182,0.532415 -0.82938,0.308282 -1.95185,-1.128806 -4.01167,-5.136027 -8.49984,-7.184606 -15.16891,-6.923698 -3.79589,0.148497 -7.63257,0.953931 -12.89752,2.707569 -4.55931,1.518605 -8.3471,3.086553 -18.34843,7.595284 -11.18961,5.044431 -21.52469,8.248192 -30.41444,9.428144 -2.34247,0.310918 -9.2511,0.451646 -11.25626,0.229282 z"
     style="fill:#cd669a;fill-opacity:1" />
</svg>
