<?xml version="1.0" encoding="UTF-8" standalone="no"?>
<svg
   xmlns:dc="http://purl.org/dc/elements/1.1/"
   xmlns:cc="http://creativecommons.org/ns#"
   xmlns:rdf="http://www.w3.org/1999/02/22-rdf-syntax-ns#"
   xmlns:svg="http://www.w3.org/2000/svg"
   xmlns="http://www.w3.org/2000/svg"
   viewBox="0 0 600 200"
   height="200"
   width="600"
   version="1.1"
   id="svg6308">
  <metadata
     id="metadata6314">
    <rdf:RDF>
      <cc:Work
         rdf:about="">
        <dc:format>image/svg+xml</dc:format>
        <dc:type
           rdf:resource="http://purl.org/dc/dcmitype/StillImage" />
        <dc:title></dc:title>
      </cc:Work>
    </rdf:RDF>
  </metadata>
  <defs
     id="defs6312" />
  <path
     id="path6858"
     d="m 279.14366,191.92842 c -12.56037,-0.68943 -22.54592,-2.68908 -43.85127,-8.7814 -8.56413,-2.44893 -17.82635,-4.89804 -20.58269,-5.44247 -17.04918,-3.3675 -32.12945,-2.13709 -48.31364,3.94194 -2.42016,0.90905 -4.48353,1.56957 -4.58528,1.46783 -0.29472,-0.29472 10.23872,-5.27346 14.98158,-7.08119 12.09039,-4.60825 24.14718,-6.30094 36.48547,-5.12232 10.58751,1.01136 20.48132,3.22469 40.33089,9.0223 7.52985,2.1993 18.53694,4.49361 26.01224,5.42198 7.63403,0.94807 28.00357,0.80169 34.75692,-0.24978 6.81525,-1.0611 14.98986,-3.12114 19.76886,-4.98179 2.03196,-0.79114 3.59403,-1.27585 3.47118,-1.07711 -0.48154,0.77916 -11.25389,5.769 -15.99556,7.40927 -12.91391,4.46726 -27.21939,6.3103 -42.4787,5.47274 z m 140.08422,-8.58763 c -2.85514,-1.44378 -3.76877,-3.00529 -3.98369,-6.8084 -0.16281,-2.88122 -0.0143,-3.58862 1.32109,-6.30157 1.70578,-3.4649 4.36361,-6.04538 9.17058,-8.90354 l 3.1669,-1.88304 0.53208,-3.5773 c 0.86852,-5.83982 0.93262,-5.72318 -2.05411,-3.7401 -4.68224,3.10882 -10.59805,2.76814 -14.18296,-0.81681 -1.72488,-1.72487 -2.00481,-1.85083 -2.71926,-1.22365 -2.43202,2.13501 -5.03577,2.95128 -9.42502,2.95475 -3.98554,0.003 -4.51844,-0.11139 -6.645,-1.42844 -3.165,-1.96019 -4.53148,-4.6038 -4.54116,-8.78558 -0.0162,-6.92271 1.49386,-38.62174 1.94862,-40.90959 0.597,-3.003167 3.06458,-6.074081 5.53622,-6.889792 5.64355,-1.862537 11.64216,1.057445 13.0903,6.372032 0.82423,3.02497 0.24643,9.91611 -1.19842,14.29224 -1.56875,4.75132 -5.87232,13.367 -9.15831,18.33478 -2.46572,3.72762 -2.5745,4.02612 -2.5745,7.06372 0,4.12107 0.84371,5.77341 3.32809,6.51776 2.47313,0.74096 5.34444,-0.29772 7.74272,-2.80089 1.42781,-1.49025 1.80363,-2.33893 2.27018,-5.12689 0.69202,-4.13494 2.86335,-10.72876 4.78936,-14.54419 l 1.45224,-2.87685 3.06142,0 c 2.1467,0 3.28551,0.22409 3.81144,0.75003 0.94069,0.94068 0.93825,0.9832 -0.14252,2.51731 -2.77204,3.93475 -5.36849,12.36951 -5.48357,17.81368 -0.0584,2.76316 0.0853,3.34512 1.0898,4.41492 1.84977,1.96988 4.58163,1.73421 7.26366,-0.62662 3.44731,-3.03445 4.68349,-5.87273 5.70885,-13.10745 0.48898,-3.45018 0.89267,-7.06401 0.89701,-8.03072 0.006,-1.30821 0.2417,-1.83185 0.92198,-2.04776 1.91689,-0.6084 6.01546,1.0678 6.73512,2.75449 0.31807,0.74559 -0.15126,4.86451 -1.61538,14.17638 -1.13509,7.21898 -1.99202,13.21343 -1.90429,13.32099 0.35735,0.4381 5.7929,-4.29319 7.68731,-6.69132 3.21305,-4.06742 4.71184,-5.6751 5.29064,-5.6751 0.29549,0 1.21742,0.60776 2.04877,1.35057 1.95401,1.74591 1.72119,2.70611 -1.64579,6.78809 -2.67167,3.23895 -7.16434,6.8175 -11.90224,9.48044 -1.50943,0.84838 -2.74442,1.64564 -2.74442,1.77169 0,2.18935 -2.67095,15.73627 -3.39944,17.24169 -2.40877,4.97785 -8.79828,7.28 -13.5443,4.88004 z m 5.2288,-4.10319 c 0.42493,-0.16307 1.06521,-0.8623 1.42284,-1.55384 0.74242,-1.4357 2.34644,-11.50783 1.90195,-11.94286 -0.54622,-0.53462 -4.93297,4.73887 -5.42964,6.52724 -0.66772,2.40431 -0.62816,5.99116 0.0739,6.69319 0.65231,0.65231 0.94665,0.69235 2.03096,0.27627 z m -23.16602,-59.76251 c 2.10145,-6.6048 3.0618,-11.76334 2.7508,-14.77642 -0.41352,-4.007 -2.43097,-6.225771 -3.62767,-3.98973 -0.36113,0.67478 -2.0114,21.65107 -1.93279,24.56717 0.0372,1.37409 1.46432,-1.57274 2.80966,-5.80102 z m -172.2623,47.41462 c -6.33334,-1.27073 -13.33387,-4.31894 -19.84605,-8.64146 -3.04366,-2.02029 -4.79283,-3.98128 -6.02557,-6.75535 -0.95172,-2.14172 -1.7139,-6.8009 -1.11246,-6.8009 0.19487,0 1.43706,0.97351 2.76049,2.16335 3.66481,3.29498 9.9928,7.32237 14.68111,9.34359 13.76094,5.93267 27.6228,5.51334 41.0358,-1.24133 6.06118,-3.05238 9.08327,-6.65621 9.06919,-10.81502 -0.01,-2.88998 -0.84255,-4.28205 -3.33562,-5.5761 -3.37377,-1.75118 -9.67818,-1.26274 -20.87403,1.61721 -8.25251,2.12283 -8.76607,2.19899 -9.88498,1.46586 -1.51811,-0.99469 -2.31008,-3.81723 -1.69514,-6.04109 0.87277,-3.15599 2.90588,-4.91129 9.27744,-8.00967 10.40227,-5.05846 18.62237,-11.27549 25.58148,-19.34777 8.56117,-9.930653 13.34738,-20.401377 13.34738,-29.199862 0,-5.756459 -0.96446,-8.425171 -4.22224,-11.682914 -4.14778,-4.147824 -6.70486,-4.989708 -15.10796,-4.974211 -7.9152,0.01459 -12.86006,1.04854 -19.18117,4.01071 -6.01341,2.81797 -10.37616,5.92046 -15.43728,10.977857 -13.24261,13.232937 -21.109,33.72245 -19.52545,50.85756 0.45839,4.96002 2.26702,11.12118 4.01647,13.6821 0.66296,0.97049 1.20536,1.8833 1.20536,2.02848 0,0.14519 -0.76238,0.26397 -1.69424,0.26397 -3.47395,0 -5.69773,-2.13396 -8.57697,-8.23058 -2.6208,-5.54933 -3.26705,-8.77241 -3.27835,-16.34979 -0.0162,-10.80748 2.40171,-19.786925 8.74951,-32.494116 6.29004,-12.591698 11.22163,-19.886816 28.68991,-42.440199 15.74509,-20.328545 20.34219,-27.245413 22.87268,-34.414737 l 1.26539,-3.5850055 4.98132,5.1592465 c 13.15416,13.624062 21.71104,29.191653 25.35361,46.126127 1.42361,6.618498 1.53062,20.467738 0.20529,26.567968 -2.70227,12.437857 -8.00614,22.154006 -16.94757,31.046276 -7.05237,7.01355 -14.45158,11.82665 -24.63072,16.02198 -2.10007,0.86554 -3.6599,1.58304 -3.46631,1.59445 0.19359,0.0114 2.44878,-0.53091 5.01154,-1.20514 5.1823,-1.36342 11.078,-1.68227 14.25045,-0.7707 6.37562,1.83199 11.04689,8.6991 10.60783,15.59435 -0.15913,2.499 -0.49423,3.4659 -1.97282,5.69284 -4.08106,6.14654 -16.07193,12.2214 -28.34923,14.36238 -4.90939,0.85612 -13.53022,0.85594 -17.79809,-3.6e-4 z m 128.52892,-8.37361 c -2.21023,-1.12001 -5.38845,-4.34806 -5.38845,-5.47292 0,-0.49213 0.49695,-0.71456 1.59653,-0.71456 3.51546,0 4.06979,-2.61801 3.67913,-17.37645 l -0.26413,-9.97848 -3.97367,0.10602 c -5.18941,0.13845 -7.09518,-0.95938 -8.17672,-4.71035 -0.36942,-1.28113 -0.31558,-1.89653 0.23999,-2.74441 0.67813,-1.03501 1.00937,-1.09298 6.24656,-1.09298 l 5.53043,0 -0.29864,-14.43798 c -0.16428,-7.940887 -0.4253,-16.667239 -0.58004,-19.391906 l -0.28141,-4.953917 -4.6034,0.326339 c -15.13373,1.072819 -23.03739,4.75906 -26.97755,12.582179 -3.01298,5.982236 -2.94397,14.337305 0.1734,20.998965 1.70616,3.64602 6.31987,8.69464 7.94561,8.69464 2.63115,0 1.81824,5.04035 -1.26162,7.82284 -1.9951,1.80245 -3.54763,2.14213 -5.39603,1.18064 -4.1074,-2.13657 -10.06129,-9.59825 -12.55436,-15.73374 -2.49937,-6.15099 -3.21812,-14.1982 -1.85016,-20.713841 2.27857,-10.852846 10.70258,-18.628997 23.77264,-21.944498 12.04768,-3.056138 24.87582,-2.765271 53.06873,1.203284 5.51268,0.775975 11.12436,1.410908 12.47041,1.410949 2.68646,7.4e-5 3.35157,0.476704 3.80102,2.723863 0.3826,1.913145 -0.83758,4.204566 -2.77156,5.204671 -1.75791,0.909031 -2.94091,0.841302 -16.84089,-0.963994 -4.98767,-0.647789 -10.84042,-1.326246 -13.00612,-1.507672 l -3.93763,-0.32988 0,18.869984 0,18.869994 4.41493,0.29173 c 2.42819,0.16046 6.88488,0.35274 9.90373,0.4273 5.38783,0.13307 5.49187,0.15668 5.65425,1.28303 0.23482,1.62929 -0.6798,4.37275 -1.8915,5.67334 -1.01844,1.09317 -1.15308,1.10654 -9.438,0.93761 l -8.40476,-0.17137 -0.005,12.17086 c 0,12.7337 -0.37816,16.07077 -2.1342,18.95837 -1.92915,3.17222 -5.22144,4.14556 -8.46414,2.50234 z m -167.88199,-9.09481 c -2.07162,-1.81892 -2.83194,-4.26283 -2.12399,-6.82698 0.46498,-1.68403 0.40126,-1.93726 -0.80432,-3.19562 -2.27843,-2.37815 -5.84337,-2.76151 -8.11883,-0.87305 -1.07383,0.89121 -0.7945,1.16773 1.23333,1.22089 2.13816,0.0561 4.61246,1.65739 5.69958,3.68863 1.10182,2.05878 0.16114,2.03062 -1.76224,-0.0527 -1.24229,-1.34568 -2.35743,-2.05111 -3.61537,-2.2871 -2.20205,-0.4131 -3.24991,0.29791 -2.33053,1.58134 1.50096,2.0953 1.28748,3.44721 -0.54433,3.44721 -1.42164,0 -1.88894,-1.0525 -1.16892,-2.63277 0.68187,-1.49654 0.0603,-2.21285 -0.8453,-0.97425 -0.88759,1.21386 -0.86609,3.96332 0.038,4.86748 0.99847,0.99847 0.0874,2.67126 -1.34389,2.46749 -0.96952,-0.13803 -1.0297,-0.36298 -0.86959,-3.25066 0.18867,-3.4026 1.02181,-5.51185 2.34275,-5.93109 0.4701,-0.14921 1.09955,-0.91992 1.3988,-1.71269 0.73027,-1.93472 3.36781,-3.03509 6.54357,-2.72994 1.95698,0.18804 2.64132,0.52337 3.92346,1.92243 l 1.55305,1.69464 1.79919,-0.91728 c 2.13329,-1.08759 3.45962,-1.1491 5.58948,-0.25917 3.44364,1.43884 4.84424,5.18475 3.2048,8.57132 -1.20454,2.48821 -3.10386,3.65737 -5.94143,3.65737 -1.75246,0 -2.50452,-0.28767 -3.85735,-1.47546 z m 9.13802,-14.43911 c -2.3515,-3.58885 -5.06345,-12.75672 -6.33261,-21.4076 -0.98637,-6.7233 -0.71894,-20.623211 0.50325,-26.157214 1.8033,-8.16538 6.34126,-19.655061 10.92642,-27.664754 1.37884,-2.408668 5.46253,-8.664314 9.07484,-13.901433 9.92245,-14.385604 13.37764,-20.543019 17.64737,-31.448646 1.17909,-3.011643 2.34138,-5.5415783 2.58289,-5.6220826 0.71039,-0.2367932 4.27221,3.4902356 5.45822,5.7113836 0.94962,1.778382 1.09366,2.739728 1.09366,7.298346 0,4.725238 -0.13072,5.529265 -1.30762,8.041497 -1.68808,3.603497 -6.45137,10.85962 -11.74417,17.890397 -17.34844,23.044998 -23.06187,33.853852 -27.54199,52.104795 -1.17556,4.788991 -1.3512,6.441151 -1.37745,12.957961 -0.0167,4.12265 -0.21683,7.35493 -0.44684,7.21422 -0.22915,-0.14021 -1.03963,-1.56831 -1.8011,-3.17355 l -1.38447,-2.91861 0.29916,2.1478 c 0.43062,3.09187 3.2817,14.10439 4.44108,17.15394 1.09166,2.87156 1.0582,3.5269 -0.0906,1.77355 z m 12.99472,-1.86443 c -0.021,-0.32813 -0.20052,-2.42224 -0.39926,-4.65356 -1.38781,-15.58499 4.96156,-32.462768 16.69594,-44.380749 9.89758,-10.05246 21.10179,-13.728402 30.65138,-10.056297 3.61337,1.389449 7.81756,5.274532 9.6723,8.938182 1.29331,2.554737 1.40815,3.190153 1.40815,7.793059 0,4.457157 -0.14371,5.318236 -1.29904,7.784088 -2.33113,4.975437 -7.84973,9.320767 -15.03602,11.839347 -2.66213,0.933 -11.65659,2.89797 -11.94501,2.60956 -0.0778,-0.0778 1.20606,-0.6269 2.85304,-1.2202 9.41518,-3.39171 18.14384,-9.3995 20.38609,-14.03138 2.29996,-4.751033 0.5591,-11.25157 -4.20705,-15.70976 -5.66404,-5.298049 -12.70137,-6.442632 -19.58784,-3.185856 -8.20559,3.88063 -18.29691,14.879388 -23.41177,25.516926 -3.93286,8.17945 -5.36687,14.27353 -5.41899,23.02919 -0.0205,3.47824 -0.10204,6.32407 -0.18079,6.32407 -0.0788,0 -0.16028,-0.26848 -0.18113,-0.59662 z m 88.01794,-37.632915 c -3.06477,-0.887294 -5.28654,-5.157055 -4.49287,-8.634352 0.67183,-2.943573 2.48262,-6.178283 4.8106,-8.593527 1.86572,-1.935629 2.49001,-2.29452 3.99156,-2.29452 1.25346,0 2.12651,0.346543 2.9515,1.171527 1.47435,1.474365 1.47836,2.237836 0.0162,3.132846 -0.63533,0.388934 -1.83651,1.566283 -2.66939,2.616316 l -1.51424,1.909152 1.4911,0.431302 c 1.88595,0.545516 4.3249,3.285753 4.3249,4.859187 0,2.071891 -1.37202,4.035743 -3.49199,4.998244 -2.1866,0.992741 -3.13836,1.063693 -5.41761,0.403825 z"
     style="fill:#cd669a;fill-opacity:1" />
</svg>
