<?xml version="1.0" encoding="UTF-8" standalone="no"?>
<svg
   xmlns:dc="http://purl.org/dc/elements/1.1/"
   xmlns:cc="http://creativecommons.org/ns#"
   xmlns:rdf="http://www.w3.org/1999/02/22-rdf-syntax-ns#"
   xmlns:svg="http://www.w3.org/2000/svg"
   xmlns="http://www.w3.org/2000/svg"
   viewBox="0 0 600 200"
   height="200"
   width="600"
   version="1.1"
   id="svg4949">
  <metadata
     id="metadata4955">
    <rdf:RDF>
      <cc:Work
         rdf:about="">
        <dc:format>image/svg+xml</dc:format>
        <dc:type
           rdf:resource="http://purl.org/dc/dcmitype/StillImage" />
        <dc:title></dc:title>
      </cc:Work>
    </rdf:RDF>
  </metadata>
  <defs
     id="defs4953" />
  <path
     id="path5499"
     d="m 274.50955,195.9846 c -0.79478,-0.32075 -1.2859,-1.20854 -1.2859,-2.32454 0,-2.09889 0.80329,-2.76683 3.30435,-2.74764 2.80182,0.0215 2.90111,-0.0914 5.08877,-5.78692 l 1.47456,-3.83898 -0.46713,-1.35347 c -0.89894,-2.60453 -11.55907,-27.48855 -11.85862,-27.68162 -0.16632,-0.10722 -2.30075,-0.16825 -4.74316,-0.13565 l -4.44077,0.0593 0,11.88204 0,11.88203 0.60011,1.20021 c 1.12039,2.24077 3.29351,2.35121 6.41005,0.32575 0.81907,-0.53231 1.6022,-0.89802 1.7403,-0.81266 0.7748,0.47885 -0.41684,2.20799 -2.45312,3.55959 -3.46079,2.29714 -7.8777,2.08283 -10.00165,-0.48527 -1.5246,-1.84342 -1.54467,-2.02975 -1.68733,-15.66965 l -0.1293,-12.36212 -1.20021,-0.0627 c -2.97312,-0.15538 -3.07252,-0.73166 -0.42007,-2.43536 2.32574,-1.49384 3.36967,-2.56758 4.57258,-4.70315 0.75113,-1.33351 1.0767,-1.69596 1.57752,-1.75624 0.34709,-0.0418 0.64382,-0.0418 0.65942,0 0.0156,0.0418 0.0966,1.5342 0.18003,3.31651 l 0.15167,3.24056 9.72167,0.12002 c 5.34692,0.066 9.9107,0.21259 10.14174,0.32573 0.46524,0.22783 0.56496,0.99664 0.1616,1.24592 -0.14216,0.0879 -0.96032,0.24679 -1.81815,0.35317 -2.83717,0.35186 -3.08856,1.27285 -1.4402,5.27641 3.5116,8.52898 7.44797,17.76303 7.57215,17.76296 0.0799,-5e-5 1.85775,-4.11379 3.95063,-9.14163 4.00689,-9.626 4.4835,-11.22279 3.7557,-12.58269 -0.40117,-0.74958 -1.62346,-1.31954 -2.82981,-1.31954 -0.59145,0 -1.17387,-0.17756 -1.52399,-0.4646 -0.54419,-0.44616 -0.54969,-0.48186 -0.1386,-0.89959 0.38704,-0.39329 0.92796,-0.43527 5.64097,-0.43787 2.86709,-0.002 5.45592,0.0765 5.75297,0.17353 0.66948,0.21865 0.71448,1.03822 0.0758,1.38004 -0.25537,0.13667 -0.81218,0.24849 -1.23737,0.24849 -1.03183,0 -2.30746,1.34764 -3.07732,3.25107 -0.31806,0.78635 -2.97739,6.99268 -5.90962,13.79185 -6.9675,16.15602 -8.21358,19.34108 -9.57887,24.4842 -0.81437,3.06775 -1.15393,3.3659 -3.81002,3.34535 -1.08183,-0.008 -2.19844,-0.10862 -2.48137,-0.22279 z m 102.29187,-7.36642 c -10.37708,-0.89112 -20.59012,-3.61299 -29.5549,-7.87665 -5.72864,-2.72454 -10.41024,-5.70385 -16.05292,-10.21588 -8.06137,-6.44604 -14.16689,-12.5554 -27.93469,-27.95224 -9.8085,-10.96905 -14.05365,-15.57049 -19.35261,-20.97683 -8.35888,-8.52827 -12.59977,-12.00065 -17.76386,-14.5448 -3.71821,-1.83182 -6.21833,-2.51582 -9.84169,-2.69256 -3.15697,-0.154 -4.39285,0.11621 -5.26338,1.15078 -0.76934,0.9143 -0.78081,1.51598 -0.043,2.2538 0.6923,0.69231 0.58579,0.84379 -0.59332,0.84379 -0.70898,0 -1.03006,-0.15598 -1.52026,-0.73855 -1.17657,-1.39827 -0.57947,-3.20118 1.48573,-4.48609 2.20073,-1.36924 4.40149,-1.88781 9.45031,-2.22679 5.82811,-0.3913 8.75316,-1.187648 11.80649,-3.214339 1.75413,-1.16432 2.91129,-2.503693 3.85052,-4.456828 0.63697,-1.324599 0.74972,-1.832198 0.74641,-3.36058 -0.005,-2.055808 -0.44298,-3.191347 -1.72922,-4.477584 -0.94299,-0.943001 -0.64693,-1.012709 1.01474,-0.238912 4.0633,1.89218 5.15005,7.394955 2.4613,12.462804 -0.96618,1.82108 -3.46237,4.157029 -5.52569,5.170949 -0.88998,0.43735 -1.61766,0.81541 -1.61704,0.84015 7.2e-4,0.0247 0.85013,0.062 1.88781,0.0828 2.45572,0.0492 4.44597,0.57285 7.13317,1.87676 5.39698,2.61881 10.79921,7.83906 24.22585,23.40978 19.68894,22.83302 30.17156,32.89029 43.10259,41.35362 13.66223,8.94189 26.2957,12.95462 40.78955,12.95584 10.56087,8e-4 19.53971,-1.98198 29.55562,-6.52702 6.72631,-3.05228 11.87942,-6.38276 15.60109,-10.08303 8.0252,-7.97911 13.64879,-19.53142 14.61378,-30.02057 0.45747,-4.9727 -0.44103,-9.87812 -2.46081,-13.43482 -0.98652,-1.73719 -3.35392,-4.08489 -4.86069,-4.82022 -1.01554,-0.4956 -1.55105,-0.58571 -3.48059,-0.58571 -2.14264,0 -2.37223,0.0498 -3.80077,0.8243 -1.52143,0.82486 -2.71131,2.03898 -3.54428,3.61646 -0.64964,1.23029 -0.60901,3.88435 0.0795,5.18884 1.08493,2.05574 3.00625,3.65996 5.71891,4.7751 l 1.42666,0.58647 -1.32023,0.002 c -6.7163,0.008 -11.15973,-4.43892 -11.352,-11.36042 -0.0275,-0.98921 -0.12242,-1.72507 -0.21098,-1.63524 -0.0885,0.0898 -1.19658,2.78567 -2.46229,5.99075 -2.58006,6.53343 -3.1315,8.71932 -2.45867,9.7462 0.66744,1.01861 1.49949,1.40609 3.29533,1.53458 1.79037,0.12811 2.25279,0.4082 1.5374,0.9313 -0.36254,0.26509 -3.90557,0.32365 -19.58439,0.32365 -12.68399,0 -19.36354,-0.0843 -19.7991,-0.24991 -1.06266,-0.40403 -0.26654,-0.86441 2.00898,-1.16173 2.41301,-0.31528 3.34939,-0.7662 3.79227,-1.82615 0.80274,-1.92125 1.1592,-17.72358 0.48505,-21.50246 -0.45015,-2.52317 -1.48972,-4.85132 -3.27846,-7.34222 -9.1417,-12.73021 -15.7937,-21.421232 -18.45856,-24.11655 -3.10878,-3.144339 -3.61553,-3.405712 -8.58745,-4.429351 -0.29705,-0.06113 -0.5401,-0.213357 -0.5401,-0.338218 0,-0.614698 1.04652,-0.701113 5.90994,-0.488004 3.17466,0.139112 6.45912,0.132919 8.95977,-0.01688 4.07362,-0.24405 5.29375,-0.160595 5.29375,0.362094 0,0.166645 -0.4325,0.43257 -0.96112,0.59095 -1.25374,0.375632 -1.76222,1.142523 -1.54064,2.323646 0.10207,0.544061 1.20311,2.455453 2.80784,4.874444 2.46064,3.709148 11.65532,17.047639 14.85667,21.552149 l 1.41466,1.99053 6.08159,-9.055264 c 3.34488,-4.980398 7.2809,-10.837581 8.74671,-13.015955 3.03427,-4.509221 3.47976,-5.621116 2.91118,-7.265854 -0.30601,-0.88524 -0.49014,-1.061766 -1.4348,-1.37562 -0.59605,-0.198034 -1.10707,-0.46808 -1.13564,-0.600103 -0.10324,-0.477513 1.32153,-0.594606 4.51911,-0.371399 1.99861,0.13952 5.09377,0.144296 7.99971,0.01232 4.55344,-0.206748 5.90333,-0.102258 5.90333,0.45695 0,0.276504 -0.45089,0.412311 -2.04035,0.614578 -3.28827,0.418455 -5.64862,1.773016 -8.64148,4.959178 -2.98203,3.174624 -9.59944,12.01015 -14.91294,19.911629 -5.3051,7.88899 -5.17178,7.46752 -5.30988,16.78398 -0.12223,8.24521 0.16376,13.29549 0.81537,14.39858 0.92649,1.56842 3.13614,2.50552 5.56699,2.36093 2.82332,-0.16792 5.32236,-1.70601 7.08395,-4.35995 0.45584,-0.68674 6.13226,-13.23619 12.61431,-27.8877 6.48205,-14.651497 11.97472,-27.017145 12.20592,-27.479224 0.63071,-1.260497 1.45571,-1.168753 2.1586,0.240041 0.29642,0.594102 5.82959,12.465025 12.29591,26.379833 6.46633,13.91481 12.21287,26.05421 12.7701,26.97645 1.23604,2.04572 3.06717,4.09062 4.01428,4.48293 1.75825,0.72829 2.6018,-0.95483 2.91575,-5.81779 0.32293,-5.00186 0.29636,-45.930307 -0.0308,-47.455832 -0.51787,-2.414751 -2.03397,-3.36585 -5.72057,-3.588736 -1.48648,-0.08987 -2.29513,-0.239025 -2.35991,-0.43529 -0.22742,-0.688919 1.17838,-0.805459 6.88589,-0.570826 3.48372,0.143208 7.67971,0.149993 10.92283,0.0176 5.95857,-0.243146 7.22459,-0.121677 6.59821,0.633084 -0.19468,0.234576 -0.81617,0.33869 -2.02182,0.33869 -3.15834,0 -4.88909,1.028777 -5.54887,3.298342 -0.32463,1.116711 -0.35624,3.992949 -0.25989,23.650718 0.10708,21.84354 0.22446,25.36182 0.91881,27.54028 0.39467,1.23832 1.30443,2.33432 2.44263,2.94272 0.96838,0.51763 1.28036,0.54074 8.28389,0.61384 7.93713,0.0828 9.9036,-0.0899 11.92892,-1.04806 2.22007,-1.05026 4.16949,-3.74824 4.58476,-6.34529 0.16503,-1.032 0.62267,-1.59004 1.07479,-1.3106 0.33603,0.20768 0.18392,2.4805 -0.38464,5.74749 -0.53582,3.07872 -0.7787,3.86567 -1.42486,4.61697 l -0.57106,0.66394 -24.9319,0.0654 c -27.34883,0.0717 -26.69275,0.10411 -24.94157,-1.23157 0.59957,-0.45732 0.8634,-0.84859 0.8634,-1.2805 0,-0.46418 -18.08919,-42.271403 -20.36718,-47.072029 -0.86453,-1.821928 -0.91969,-1.715302 -6.92982,13.392519 -3.07246,7.72333 -5.65026,14.25845 -5.72844,14.5225 -0.0782,0.26404 0.23719,-0.0707 0.70085,-0.74382 4.51006,-6.54757 14.38147,-6.79946 20.20722,-0.51564 5.9824,6.45281 6.84388,19.29509 2.14599,31.99085 -1.12474,3.03952 -3.7276,8.40686 -5.59493,11.53726 -4.05929,6.805 -10.09174,13.17938 -16.71923,17.66686 -9.46854,6.41116 -21.49153,10.48387 -34.56592,11.709 -2.40872,0.22571 -12.09685,0.28265 -14.40247,0.0847 z m -247.00236,-6.54008 -7.20123,-0.13794 -0.0759,-0.65999 c -0.0913,-0.79346 0.59602,-1.14032 2.25965,-1.14032 1.68234,0 2.67651,-0.53458 3.21963,-1.73126 0.44846,-0.9881 0.46711,-1.69562 0.46667,-17.71207 -2.4e-4,-9.17557 -0.0982,-17.10424 -0.21766,-17.61925 -0.11947,-0.51501 -0.44422,-1.16312 -0.72168,-1.44025 -0.51996,-0.51933 -0.75794,-0.53519 -4.81065,-0.32093 -1.0074,0.0533 -1.08019,0.0166 -1.08019,-0.54299 0,-1.66947 6.11396,-2.6636 16.43465,-2.67229 6.26763,-0.006 9.36442,0.36806 12.36477,1.49064 3.93806,1.47342 6.36662,4.89152 6.36662,8.96081 0,4.77601 -3.26479,8.404 -8.23309,9.14904 -1.21741,0.18257 -1.31201,0.59481 -0.1365,0.59481 1.07964,0 4.21856,1.12273 5.76452,2.06185 1.90095,1.15476 3.8883,3.3717 4.5085,5.02929 1.43498,3.83536 1.04284,7.84312 -1.08042,11.04194 -1.65294,2.49026 -4.21878,4.12253 -8.14427,5.181 -1.66016,0.44764 -2.63579,0.52376 -7.20124,0.56182 -2.90449,0.0242 -8.52146,-0.0181 -12.48214,-0.0939 z m 16.68286,-2.15129 c 2.13829,-0.67133 3.61149,-1.66439 4.79545,-3.23254 1.33942,-1.77405 1.95228,-3.47038 2.10386,-5.82328 0.21726,-3.37243 -0.863,-6.29716 -3.09809,-8.38783 -2.38401,-2.22996 -5.2712,-2.98684 -11.3935,-2.98684 -3.39627,0 -4.07927,0.061 -4.45089,0.39726 -0.40773,0.36899 -0.43897,0.94036 -0.43897,8.02956 0,4.59837 0.10393,8.11688 0.26144,8.85133 0.42575,1.9852 1.68617,3.08831 4.12344,3.60881 1.68792,0.36047 6.32842,0.0989 8.09726,-0.45647 z m -3.70066,-22.58667 c 5.17045,-0.67212 7.83982,-3.48698 7.85737,-8.28562 0.013,-3.55229 -1.2797,-6.09472 -3.91667,-7.70314 -1.88882,-1.15209 -3.93663,-1.62304 -7.08121,-1.62853 -3.03178,-0.006 -4.16481,0.29294 -5.03301,1.32473 l -0.60796,0.72252 0.004,7.36285 c 0.002,4.04957 0.0961,7.50866 0.20901,7.68687 0.11294,0.17822 0.57036,0.4102 1.0165,0.51552 1.1312,0.26706 5.51342,0.26984 7.5523,0.005 z m 30.91477,24.26076 c -2.8051,-0.76117 -4.55838,-1.79305 -6.71727,-3.95344 -3.21394,-3.21618 -4.65901,-6.97028 -4.64996,-12.07998 0.006,-3.16367 0.48739,-5.26948 1.82595,-7.98112 0.89311,-1.80927 1.49211,-2.64157 2.95111,-4.10056 3.04155,-3.04156 6.41164,-4.37425 11.06149,-4.37425 5.75541,0 9.65926,2.11639 11.75451,6.37245 0.87451,1.77639 1.19641,3.7637 0.67916,4.19298 -0.2504,0.20781 -3.21343,0.30291 -10.97009,0.35207 l -10.62704,0.0674 -0.55653,0.6472 c -0.44638,0.51909 -0.59043,1.05425 -0.72785,2.70385 -0.72519,8.70581 4.57602,15.11799 12.4882,15.10538 3.44076,-0.006 5.69214,-0.82402 8.11535,-2.9505 1.38992,-1.21972 1.91759,-1.45077 2.21484,-0.9698 0.33385,0.54017 -0.19966,1.49985 -1.60065,2.87925 -1.76015,1.73304 -4.06035,3.12619 -6.32913,3.83332 -2.44216,0.76118 -6.60882,0.88076 -8.91209,0.25578 z m 9.31673,-23.75761 c 1.11688,-0.35518 2.11579,-1.51565 2.11579,-2.45802 0,-3.00016 -4.50347,-5.17087 -8.92363,-4.30126 -2.73266,0.53762 -4.76191,1.89728 -6.2364,4.1786 -0.86479,1.33801 -1.15703,2.47712 -0.7427,2.89503 0.28829,0.29077 12.7797,0.006 13.78694,-0.31435 z m 13.51774,23.76321 c -1.78839,-0.8254 -2.79196,-2.50382 -2.81171,-4.70246 -0.0204,-2.27156 1.38933,-4.39629 4.19995,-6.33004 1.61519,-1.11129 5.79218,-3.14657 9.17357,-4.46992 1.58427,-0.62003 3.02974,-1.27131 3.21215,-1.4473 0.26187,-0.25264 0.33764,-1.49852 0.36006,-5.92076 0.0321,-6.32559 -0.0627,-6.75094 -1.67596,-7.51646 -1.34079,-0.63625 -4.6064,-0.42134 -6.21699,0.40913 -1.64799,0.84977 -2.16871,1.47783 -3.58273,4.32137 -1.04942,2.11037 -1.3624,2.53631 -2.20528,3.00127 -0.97979,0.54048 -3.24574,0.83283 -3.61249,0.46608 -0.3383,-0.3383 -0.11143,-2.04118 0.40744,-3.05826 1.17378,-2.30078 5.00549,-5.19586 8.33199,-6.29528 2.50147,-0.82674 5.58687,-1.17854 7.82264,-0.89195 3.09421,0.39665 4.56034,1.18536 5.49686,2.95704 0.63375,1.19892 0.63715,1.35206 0.33395,15.04867 -0.18601,8.40243 -0.16684,9.58425 0.16841,10.38331 0.6671,1.58998 2.03594,1.69041 3.87903,0.28462 0.88068,-0.67173 1.56337,-0.64809 1.56337,0.0542 0,0.62844 -2.24455,2.60488 -3.89466,3.42945 -3.12534,1.56175 -5.43224,0.5701 -6.68841,-2.87505 -0.28773,-0.78913 -0.61609,-1.43479 -0.72968,-1.43479 -0.11359,0 -1.07196,0.64167 -2.12969,1.42594 -4.31661,3.20057 -8.6896,4.41301 -11.40182,3.16124 z m 8.17098,-3.27751 c 1.57943,-0.40914 2.69473,-1.06196 3.92129,-2.29522 1.36457,-1.37201 1.7069,-2.46064 1.87431,-5.96046 0.17416,-3.64112 0.11723,-3.73026 -1.93375,-3.0282 -4.4156,1.51148 -7.80141,3.93261 -8.66365,6.19521 -0.82678,2.16955 -0.03,4.71541 1.62572,5.19438 1.11508,0.32257 1.58293,0.307 3.17608,-0.1057 z m 26.11095,3.24007 c -2.60162,-0.51426 -4.94706,-2.32292 -6.18801,-4.77181 -1.31502,-2.59507 -1.37572,-3.2592 -1.28898,-14.10177 l 0.0797,-9.95799 -0.66105,-0.57057 c -0.36359,-0.31381 -1.0117,-0.62432 -1.44025,-0.69003 -2.66883,-0.40917 -2.5795,-0.37457 -2.5795,-0.99894 0,-0.39838 0.17858,-0.66078 0.54009,-0.79361 0.68576,-0.25197 8.97233,-0.19913 9.22961,0.0589 0.1056,0.10589 0.138,3.45085 0.072,7.43325 -0.066,3.98239 -0.12002,9.19619 -0.12002,11.58622 l 0,4.34549 0.8421,1.65554 c 1.33317,2.62098 3.38083,3.69587 7.04065,3.69587 4.2718,0 6.94257,-1.79948 7.74748,-5.22 0.48164,-2.04671 0.47435,-19.18018 -0.009,-20.33615 -0.39054,-0.93471 -1.43141,-1.567 -2.58743,-1.57178 -1.71835,-0.007 -2.51849,-0.65355 -1.75454,-1.41749 0.31237,-0.31238 1.12042,-0.3776 4.81457,-0.38857 2.44157,-0.007 4.54142,0.05 4.66634,0.12717 0.13696,0.0846 0.25411,5.35044 0.29511,13.26498 0.0787,15.19324 -0.15962,13.90554 2.60245,14.06162 1.65258,0.0934 1.69103,0.11018 1.61951,0.70761 -0.0639,0.53374 -0.31873,0.69437 -1.9936,1.25675 -1.96104,0.65846 -3.7555,1.50661 -5.04086,2.38253 -0.80981,0.55186 -1.44711,0.63115 -1.70601,0.21226 -0.0957,-0.1549 -0.15037,-1.34311 -0.12143,-2.64045 0.0413,-1.85033 -0.0174,-2.35881 -0.2726,-2.35881 -0.17888,0 -1.39983,0.81357 -2.71322,1.80794 -2.54322,1.92548 -4.1924,2.82578 -5.89541,3.21839 -1.23329,0.28432 -3.74872,0.28601 -5.17802,0.003 z m 8.08533,-35.40381 c -2.05268,-0.63737 -3.58104,-2.39354 -3.97124,-4.56316 l -0.17068,-0.94901 0.69072,0.64738 c 1.49153,1.39793 3.51678,1.75266 5.24098,0.91799 1.28214,-0.62067 1.8109,-1.54425 1.81066,-3.16267 -2.1e-4,-1.39167 -0.91776,-3.66855 -2.1132,-5.24387 l -0.63755,-0.84014 0.71536,0.45892 c 2.77203,1.77832 5.69903,4.64864 6.56536,6.43824 0.60204,1.24367 0.66894,3.02316 0.15127,4.02422 -1.12141,2.16857 -5.09987,3.26006 -8.28168,2.2721 z m 10.06317,-1.01585 c 1.02071,-1.27508 1.4931,-2.56342 1.4931,-4.07209 0,-2.32896 -0.74818,-3.42 -6.13775,-8.95033 -5.87414,-6.02755 -7.15757,-8.01573 -7.82348,-12.1195 -0.64737,-3.98949 0.88861,-9.71797 3.91731,-14.60964 l 0.57542,-0.92936 0.13314,1.88952 c 0.18774,2.66465 0.92674,4.46837 2.45814,5.99978 1.00373,1.00372 2.00717,1.61351 5.18399,3.15028 4.27973,2.07029 5.47501,3.02945 5.96237,4.78455 0.34075,1.22711 0.32428,1.72833 -0.12118,3.68686 l -0.37853,1.66426 -0.65252,-0.33742 c -2.42348,-1.25324 -6.15489,-5.02522 -7.35647,-7.43648 -0.86068,-1.72714 -0.74081,-0.56856 0.13207,1.27656 0.66661,1.4091 1.98131,3.44591 3.56386,5.52136 l 0.6234,0.81755 -0.95719,-0.17392 c -1.20842,-0.21956 -3.33669,-1.1767 -4.37144,-1.96594 -2.03728,-1.55391 -3.35817,-4.70016 -3.59599,-8.56536 -0.0795,-1.29193 -0.22672,-2.39977 -0.32717,-2.46185 -0.34622,-0.21397 -0.51753,3.44187 -0.2533,5.40529 0.66385,4.93278 3.27158,9.16456 6.72618,10.91514 3.53452,1.79108 7.63413,0.42483 9.16295,-3.05366 0.73568,-1.67391 0.77982,-4.31913 0.10276,-6.1596 -0.80793,-2.1962 -2.5445,-3.81786 -5.04059,-4.70707 -0.8487,-0.30233 1.02004,-0.65292 2.81258,-0.52765 2.90507,0.203 5.32588,1.8969 6.82706,4.77704 0.56576,1.08546 0.66921,1.57664 0.67513,3.20572 0.006,1.69413 -0.0864,2.11381 -0.77546,3.51477 -0.92792,1.88669 -2.21317,3.12116 -4.23419,4.06691 -1.34019,0.62715 -2.05746,0.81423 -5.06508,1.32107 l -0.96017,0.16181 0.75439,0.20696 c 1.23429,0.33862 3.10096,2.21408 3.97909,3.99782 0.99867,2.02859 1.09646,4.35772 0.25029,5.9612 -1.0498,1.98937 -4.15165,3.92222 -7.21188,4.49393 l -0.78786,0.14719 0.71702,-0.8957 z m 81.99263,-5.85626 c -1.05618,-0.11933 -3.15406,-0.49283 -4.66194,-0.83002 -14.40989,-3.22222 -24.06017,-12.35148 -26.35777,-24.93469 -0.53378,-2.9233 -0.5239,-8.65707 0.0198,-11.45232 2.18173,-11.218235 10.36377,-19.842386 22.75609,-23.985712 15.80143,-5.283146 33.992,-2.077572 43.89815,7.735806 4.20936,4.169947 6.99626,9.599913 7.93487,15.460126 0.43913,2.74166 0.38234,8.39482 -0.11205,11.15253 -2.62116,14.62114 -15.17971,24.97404 -32.60575,26.8792 -2.72258,0.29765 -8.12585,0.28527 -10.87132,-0.0249 z m 12.60216,-2.7093 c 5.69441,-0.86343 10.27416,-3.18507 14.05798,-7.12648 2.0966,-2.18391 2.94308,-3.4149 4.30569,-6.26146 2.21292,-4.62289 3.13852,-9.58224 2.92435,-15.6685 -0.3223,-9.159562 -3.10279,-15.872236 -8.85964,-21.388894 -5.4343,-5.207573 -12.07558,-7.784383 -20.1097,-7.802538 -8.03871,-0.01816 -14.87434,2.779621 -19.98708,8.180595 -4.68677,4.950985 -6.93297,11.04124 -6.95241,18.850467 -0.0186,7.49647 1.92571,13.81116 5.91028,19.19454 6.56321,8.86726 17.98245,13.64896 28.71053,12.02227 z m -84.37448,-0.83849 c -2.04291,-0.83614 -1.90953,-3.86447 0.20088,-4.56097 2.68988,-0.88774 4.4138,2.85046 1.99476,4.3255 -0.80227,0.4892 -1.41515,0.55492 -2.19564,0.23547 z M 234.457,130.73849 c -5.31824,-2.3144 -9.64061,-5.40588 -13.71653,-9.81046 -3.75778,-4.06078 -4.9525,-5.2032 -6.57327,-6.28551 -2.61136,-1.7438 -5.91001,-2.60584 -8.8752,-2.31935 -3.29013,0.31788 -5.20199,0.92778 -15.12258,4.8242 -8.97272,3.52414 -16.00991,4.1688 -18.20581,1.6678 -0.91201,-1.03872 -1.10497,-2.02483 -0.9163,-4.68281 0.0814,-1.14684 0.0454,-2.44269 -0.0799,-2.87967 -0.13179,-0.45954 -0.93651,-1.52535 -1.90868,-2.52795 -0.92444,-0.95339 -1.7961,-2.03664 -1.93699,-2.40724 -0.34812,-0.91562 -0.0885,-1.909 0.74801,-2.86169 l 0.69834,-0.79537 -0.90136,-0.16712 c -1.65259,-0.3064 -3.24177,-1.57926 -3.24177,-2.596524 0,-0.310909 0.28355,-1.014462 0.63011,-1.563452 1.22719,-1.943997 0.7708,-3.262471 -1.55179,-4.482953 -2.08723,-1.096815 -3.09901,-2.089361 -3.09901,-3.0401 0,-1.043819 0.32029,-1.522997 2.65752,-3.975818 2.77268,-2.909803 3.76172,-4.36154 4.40099,-6.459836 0.13863,-0.45503 0.0414,-0.520977 -0.92988,-0.630452 -1.28763,-0.145136 -2.56699,-1.037001 -3.00523,-2.094991 -0.40851,-0.986249 -0.23585,-1.088354 0.80351,-0.475121 0.53139,0.313533 1.3012,0.518041 1.98912,0.528442 2.50597,0.03785 2.56128,-1.850117 0.22291,-7.609224 -1.79662,-4.424855 -2.44739,-9.130558 -1.83856,-13.294416 0.80225,-5.486605 2.90255,-7.961541 6.75639,-7.961541 3.14045,0 5.84256,1.92309 10.77763,7.670435 5.24858,6.112464 8.52993,8.697011 11.92855,9.395507 3.52429,0.724324 6.62591,-1.278691 6.09778,-3.937923 l -0.13392,-0.674356 -0.45106,0.841737 c -0.65427,1.220953 -1.80517,1.70646 -3.9897,1.683064 -2.11541,-0.02264 -3.54842,-0.533203 -6.0638,-2.160394 -3.82448,-2.47404 -5.52217,-5.013476 -5.80177,-8.678408 -0.20109,-2.635724 -0.75597,-5.7605 -1.22023,-6.871626 -0.19551,-0.467929 -0.69096,-1.232868 -1.10098,-1.69986 -0.92007,-1.0479 -0.63,-1.100429 0.57803,-0.104666 1.07721,0.887928 2.03938,2.683444 2.24607,4.191439 0.16884,1.231835 0.31229,1.170304 0.87435,-0.375073 1.25349,-3.446422 0.98649,-5.398277 -1.0118,-7.396556 -1.11995,-1.11996 -5.0534,-3.405296 -5.86108,-3.405296 -0.836,0 -1.1953,4.995777 -0.50501,7.021676 0.21685,0.636405 0.98221,1.801397 1.80222,2.743223 2.47963,2.848016 2.86174,3.553641 2.86174,5.284674 0,0.832295 -0.0402,1.513267 -0.0892,1.513267 -0.0491,0 -0.79614,-0.675115 -1.66014,-1.500257 -3.56573,-3.405368 -7.91251,-5.052466 -11.23209,-4.256114 l -1.27899,0.306829 -0.8916,-1.0047 c -1.12884,-1.272043 -1.65242,-2.803201 -1.64496,-4.810441 0.0134,-3.60341 1.12913,-6.01776 4.16777,-9.018794 2.53703,-2.505614 4.77696,-3.879082 8.27058,-5.071302 3.04746,-1.039954 5.41908,-1.430109 11.47111,-1.887108 6.55589,-0.495036 9.48439,-1.053508 12.01727,-2.291697 3.2929,-1.609724 4.01063,-3.259775 2.30144,-5.291027 l -0.65276,-0.775765 1.11085,0.125206 c 0.61097,0.06889 1.45736,0.371943 1.88088,0.673515 1.3983,0.995675 2.13614,3.613988 1.32181,4.690628 -0.54154,0.715971 -0.45459,0.780262 0.75067,0.555095 3.96583,-0.740895 6.94804,-4.00683 7.22881,-7.916533 0.27382,-3.813078 -1.84154,-6.395929 -5.42464,-6.6234956 -1.2281,-0.078013 -1.7974,-1.44e-4 -2.43767,0.3333856 -1.75444,0.913916 -2.41562,2.988328 -1.45475,4.564206 0.51211,0.83988 1.59893,1.511907 2.44509,1.511907 0.59728,0 1.88537,-1.104797 1.88537,-1.617093 0,-0.629636 -0.73198,-1.734465 -1.38326,-2.087846 -0.65347,-0.354573 -0.65024,-0.356589 0.5847,-0.366143 1.46215,-0.01128 2.58301,0.745584 2.84056,1.918201 0.21241,0.967118 -0.49247,2.352748 -1.56192,3.070351 -0.72753,0.488179 -1.07092,0.552446 -2.56197,0.479514 -1.4751,-0.07217 -1.87059,-0.191977 -2.75996,-0.836239 -1.45611,-1.054797 -2.11935,-2.409438 -2.11935,-4.328695 0,-4.4740308 4.44778,-6.895102 8.88153,-4.8345006 3.33038,1.5478094 5.1456,5.1951306 4.57997,9.2025536 -0.11181,0.792136 -0.16982,1.477294 -0.12893,1.522565 0.15571,0.172422 0.81519,-1.384837 1.66239,-3.925529 0.48379,-1.450848 1.16248,-3.123983 1.50819,-3.718085 1.09437,-1.8805867 2.87394,-3.5416475 4.83015,-4.5084613 1.68492,-0.8327347 1.9512,-0.8922087 3.9786,-0.8886887 1.86646,0.0032 2.37446,0.09766 3.60294,0.669675 1.44956,0.6749479 3.01092,1.7326332 3.01031,2.0392298 -1.8e-4,0.092296 -0.62418,0.3511162 -1.38666,0.5751546 -1.67484,0.4921164 -3.19064,1.5460656 -4.01489,2.7916066 -0.33567,0.507231 -0.83498,1.885299 -1.10958,3.062373 -1.10334,4.729459 -1.34206,5.323233 -2.68244,6.67224 -0.68634,0.690759 -1.51794,1.425613 -1.848,1.633008 -0.54939,0.345219 -0.45811,0.347708 1.08019,0.02937 2.34183,-0.484643 3.84337,-0.251459 6.08801,0.945434 3.78842,2.020067 4.18773,2.188328 5.43957,2.292137 4.96773,0.411967 8.06049,-3.637519 5.97477,-7.823013 -0.74727,-1.499585 -1.70243,-2.232351 -3.11783,-2.39189 -2.93152,-0.330425 -4.5887,2.197481 -3.48994,5.323665 l 0.49226,1.40056 -0.8888,-0.144233 c -1.26554,-0.205371 -2.69957,-1.303191 -3.34237,-2.558783 -2.63533,-5.14753 2.49466,-11.0256982 8.62704,-9.8852627 4.17207,0.7758767 6.68533,3.3793397 7.42473,7.6912147 0.35841,2.09003 0.0291,4.445642 -0.89433,6.397633 -0.79443,1.679288 -3.20724,3.929938 -5.32136,4.963715 -1.52991,0.748097 -1.78258,0.796601 -4.14955,0.796601 -2.35118,0 -2.60784,-0.04833 -3.82214,-0.720123 -0.71595,-0.396068 -1.6071,-1.141396 -1.98034,-1.656292 -0.75212,-1.037554 -0.84002,-0.994955 -0.35286,0.171005 1.10052,2.633899 5.56348,4.536882 8.89275,3.791826 2.17858,-0.487548 4.39933,-1.768127 6.74422,-3.889003 4.92699,-4.456316 8.87742,-6.023033 13.28571,-5.269048 6.15372,1.052517 10.61146,6.46823 11.41881,13.872715 0.0976,0.895002 0.0723,1.500258 -0.0627,1.500258 -0.12445,0 -0.28625,-0.156275 -0.35955,-0.347292 -0.24538,-0.63943 -3.76127,-3.236491 -5.53938,-4.091725 -2.77956,-1.336918 -5.07914,-1.846709 -8.42112,-1.866889 -3.25208,-0.0196 -4.81808,0.28789 -8.1614,1.602691 l -2.16037,0.849594 1.32022,-0.17355 c 0.72613,-0.09545 2.72447,-0.160603 4.44076,-0.144793 8.19052,0.07545 15.82961,3.433309 20.84614,9.163099 1.84654,2.109098 3.59855,5.049394 4.38189,7.353885 l 0.33223,0.977264 -0.53801,-0.717611 c -3.95252,-5.272024 -9.26705,-8.677 -15.57079,-9.976087 -2.17937,-0.449125 -3.02959,-0.498205 -6.81097,-0.393155 -4.8278,0.134111 -7.14788,0.533523 -11.5328,1.985404 -3.61433,1.196733 -7.21803,2.847632 -10.653,4.880277 -2.9674,1.755965 -3.59142,2.243737 -1.99835,1.562044 5.5841,-2.389506 11.82264,-4.11793 17.6604,-4.892935 2.44043,-0.323976 8.7412,-0.319967 11.09248,0.0072 9.02442,1.255183 16.27786,6.093661 20.86285,13.916762 0.46912,0.800418 0.85293,1.494241 0.85293,1.541841 0,0.04761 -1.3544,-0.817941 -3.00979,-1.923418 -12.473,-8.329556 -24.12015,-9.733621 -39.35748,-4.744534 -6.86788,2.248722 -13.72615,5.891323 -19.80339,10.518092 -3.06506,2.333512 -4.08183,2.941152 -6.35273,3.796499 -1.70194,0.641038 -2.23913,0.728445 -4.56915,0.743407 -2.92348,0.0188 -4.03611,-0.319951 -5.90009,-1.796252 l -0.94108,-0.745343 4.8e-4,0.680276 c 7.2e-4,1.184731 0.77037,2.291489 2.39491,3.443575 2.45106,1.738234 2.80419,3.583942 1.05592,5.519066 -1.00251,1.109654 -2.13418,1.534687 -3.68856,1.385325 -2.80494,-0.269518 -4.44345,-3.37453 -2.9799,-5.646992 0.46541,-0.72266 0.172,-0.680444 -1.16531,0.167645 -1.28963,0.81786 -2.09969,2.187199 -2.0962,3.543432 0.005,1.734961 1.46803,4.003726 3.28379,5.090432 0.41558,0.248723 0.41418,0.272159 -0.0323,0.538197 -1.57639,0.939201 -2.80646,3.278994 -2.96079,5.631893 -0.13766,2.098696 0.30222,3.56786 1.56824,5.237834 0.82401,1.086947 3.36841,3.385864 3.54831,3.205969 0.0421,-0.04209 -0.37327,-0.981451 -0.92296,-2.087513 -0.92405,-1.859311 -0.9997,-2.158234 -1.00272,-3.962463 -0.003,-1.724528 0.0885,-2.137879 0.78568,-3.554754 0.91125,-1.851821 2.35453,-3.246764 4.46284,-4.313363 l 1.41113,-0.713899 -1.08599,1.399296 c -0.5973,0.769604 -1.2987,1.831354 -1.55868,2.359445 -3.44836,7.004609 0.11522,14.289845 7.02364,14.358881 3.82603,0.03825 6.59269,-2.538259 6.59879,-6.145185 0.004,-2.289056 -1.00152,-4.003886 -2.9286,-4.99512 -1.2742,-0.655425 -3.24336,-0.615634 -4.2948,0.08677 -2.61711,1.748339 -1.91977,5.936233 0.98846,5.936233 1.03967,0 1.12398,-0.118292 0.58869,-0.826013 -0.44612,-0.589821 -0.44634,-1.17661 -7.2e-4,-2.038278 0.43857,-0.848105 1.31853,-1.087314 2.37539,-0.645726 1.1407,0.476609 1.59383,1.234291 1.59277,2.663272 -0.002,2.840586 -2.4477,4.410288 -5.77279,3.705279 -3.34692,-0.709626 -5.22343,-2.776968 -5.45471,-6.009418 -0.24224,-3.385676 1.25447,-7.349076 4.11301,-10.891523 1.81417,-2.24821 3.44172,-3.873689 3.66004,-3.655379 0.0847,0.08475 -0.0753,1.053396 -0.35566,2.152553 -0.62029,2.431865 -0.62914,3.142483 -0.0546,4.383319 0.52617,1.136467 1.13537,1.71159 3.89001,3.672414 2.91816,2.077212 3.72134,3.226377 4.02443,5.758075 l 0.15193,1.26909 0.77753,-1.190692 c 2.03857,-3.122015 3.18301,-6.179636 3.18301,-8.504426 0,-2.885359 -1.09748,-4.622353 -3.98354,-6.304753 -2.55126,-1.487239 -3.07809,-2.938512 -1.61942,-4.461037 1.1515,-1.201902 2.72017,-1.083922 3.71893,0.279704 0.24174,0.330056 0.9099,1.896325 1.4848,3.480597 1.65116,4.550188 2.44902,5.877431 4.28572,7.129262 0.52302,0.356485 1.43645,0.720956 2.02983,0.809939 l 1.07887,0.161788 -1.16856,0.667394 c -2.38812,1.363914 -4.19521,4.227181 -4.6915,7.433507 -0.49798,3.217178 0.63038,6.476681 3.18408,9.197864 2.61753,2.78923 5.8479,4.11322 8.73714,3.58099 0.80638,-0.14853 1.71914,-0.34507 2.02835,-0.43674 l 0.5622,-0.16668 -0.48805,0.95666 c -1.39194,2.72843 -5.44679,4.53226 -9.77136,4.34686 -3.62294,-0.15532 -5.62928,-1.45565 -6.41216,-4.15578 l -0.34799,-1.2002 -0.27383,1.27203 c -0.39635,1.84118 -0.33941,4.57106 0.12372,5.93025 0.79787,2.34161 3.23916,3.95964 5.97434,3.95964 0.99685,0 3.01991,-0.31951 3.70983,-0.58592 0.31048,-0.11988 0.36303,0.39853 0.38161,3.76404 0.0187,3.38431 0.10312,4.20841 0.63531,6.20024 0.78956,2.95505 2.07324,5.48703 3.60062,7.10201 0.6672,0.70547 1.0624,1.28177 0.87822,1.28066 -0.18417,-0.002 -1.52308,-0.51909 -2.97533,-1.15108 z M 203.6875,73.762408 c 0.74582,-0.39722 1.10798,-0.942498 1.11679,-1.681457 0.0114,-0.960252 -0.21901,-1.380604 -0.9697,-1.768807 -0.97062,-0.501926 -1.60008,-0.436051 -2.27413,0.238009 -1.59322,1.593217 0.1693,4.254962 2.12704,3.212255 z m 6.91888,-10.14862 c 4.31932,-0.915509 6.42664,-3.014069 5.72308,-5.699274 -0.3309,-1.26292 -0.9777,-2.277118 -3.13649,-4.918075 -1.53452,-1.877266 -1.9001,-2.478817 -1.50646,-2.478817 0.0844,0 1.73168,0.858219 3.66063,1.907151 1.92896,1.048932 4.00366,2.029732 4.61045,2.179566 2.78342,0.687294 4.93235,-1.184163 5.85541,-5.099331 0.82117,-3.482997 0.31607,-5.39142 -1.70146,-6.428662 -1.09712,-0.564041 -1.38388,-0.599263 -4.7725,-0.586212 -3.02484,0.0116 -3.85477,0.09704 -5.15521,0.530395 -0.85248,0.284072 -1.57808,0.488387 -1.61244,0.454029 -0.0343,-0.03432 0.64739,-0.597086 1.51498,-1.250518 4.91918,-3.704827 6.06783,-8.182867 2.79459,-10.894676 -1.3439,-1.113383 -3.32999,-1.972042 -4.88819,-2.11333 -3.67125,-0.332897 -5.67369,2.600902 -6.28259,9.20473 l -0.26793,2.905714 -0.57373,-1.705508 c -0.73796,-2.193712 -2.24057,-5.239619 -3.28698,-6.662983 -1.88958,-2.570256 -3.86978,-3.211382 -6.126,-1.983388 -1.41709,0.771277 -3.60364,3.01743 -4.37981,4.49918 -0.70898,1.353512 -0.71702,3.514858 -0.0181,4.848007 1.0608,2.023211 3.78648,4.036636 7.00028,5.170998 l 1.7833,0.629444 -2.85559,0.167637 c -7.43008,0.436171 -9.09745,1.316082 -8.92106,4.707839 0.11121,2.138463 0.8695,3.569596 3.06147,5.777999 4.3143,4.346641 7.34782,3.856837 11.06575,-1.786714 l 1.42287,-2.159811 -0.18153,1.18462 c -0.0998,0.651551 -0.18152,2.480849 -0.18152,4.065121 0,2.448787 0.0719,3.00265 0.48008,3.695553 1.17582,1.996214 3.36767,2.582651 6.87465,1.839316 z M 208.6823,56.88837 c -1.11582,-4.448906 -2.10862,-6.071761 -4.03121,-6.589457 -1.50559,-0.405414 -3.18565,0.03417 -6.80036,1.779393 -3.51614,1.697603 -3.44962,1.449216 0.29449,-1.099669 3.55965,-2.423311 4.50633,-3.46713 4.50633,-4.968724 0,-0.951059 -0.92349,-2.262188 -4.32454,-6.139716 -3.43428,-3.915416 -2.87075,-3.841571 1.41554,0.185495 5.48895,5.156996 6.38062,5.205589 9.17941,0.500222 1.49196,-2.508294 3.13219,-4.959866 3.24376,-4.848287 0.0542,0.05417 -0.4083,1.383213 -1.02768,2.953458 -1.37982,3.498104 -1.62335,5.344661 -0.81794,6.201984 0.63599,0.676988 1.70021,0.97299 5.17365,1.439046 2.29823,0.308365 5.16089,0.966902 5.16089,1.187236 0,0.04049 -1.59328,0.0228 -3.54061,-0.03937 -4.45495,-0.142248 -6.06821,0.146337 -7.21198,1.290117 l -0.80737,0.807371 0.173,4.685811 c 0.0951,2.577194 0.11695,4.685812 0.0485,4.685812 -0.0685,0 -0.35372,-0.913813 -0.63384,-2.030701 z m -0.61891,-8.640225 c 0.32405,-0.324056 0.58919,-0.741559 0.58919,-0.927791 0,-0.614874 -0.97274,-1.603555 -1.57769,-1.603555 -0.75506,0 -1.54285,0.796688 -1.54285,1.560267 0,0.725597 0.7763,1.560268 1.45116,1.560268 0.27005,0 0.75613,-0.265134 1.08019,-0.589189 z m 25.79848,-5.441685 c 1.52759,-0.457679 3.01111,-1.933412 4.07927,-4.057888 0.9576,-1.904574 1.86242,-2.87346 2.68346,-2.87346 0.66662,0 0.32969,-0.398917 -1.12043,-1.326548 -4.65693,-2.979007 -9.53611,-2.135446 -12.49464,2.160202 -0.5026,0.729766 -0.85196,1.388719 -0.77633,1.464348 0.0756,0.07561 1.02532,-0.142969 2.11044,-0.485764 2.08927,-0.659993 5.82705,-1.117919 5.39324,-0.660729 -0.13202,0.139136 -1.10419,0.467528 -2.16037,0.729757 -1.05618,0.262229 -2.51443,0.703897 -3.24056,0.981488 -1.33766,0.511384 -3.60061,2.012033 -3.60061,2.387706 0,0.320095 2.73358,1.467331 4.38735,1.841299 1.60576,0.363111 3.16834,0.310222 4.73918,-0.160411 z m -10.51752,-3.419042 c -0.12683,-1.086467 0.30578,-1.842452 2.35339,-4.112409 1.83903,-2.038734 2.87545,-3.858686 2.87064,-5.040865 -0.006,-1.515588 -1.33712,-3.526564 -2.8528,-4.310355 -0.7488,-0.387218 -3.14061,-0.80449 -3.14061,-0.547902 0,0.07121 0.37806,0.507511 0.84014,0.969591 0.46208,0.462079 0.84014,1.0509 0.84014,1.30848 0,0.544285 -0.76597,2.026635 -2.01546,3.900413 -1.94271,2.913363 -1.97978,5.419793 -0.11156,7.542205 0.53219,0.604608 1.04477,1.099276 1.13906,1.099276 0.0943,0 0.12897,-0.36379 0.0771,-0.808434 z m 24.60361,73.194692 c -3.0416,-1.08496 -5.23558,-4.18362 -5.25426,-7.42083 -0.01,-1.71365 0.35,-2.68973 1.95642,-5.306243 1.29398,-2.107617 1.68954,-3.228658 1.68658,-4.779948 -0.002,-1.429869 -0.75383,-3.228036 -1.88787,-4.519642 -2.66155,-3.031328 -7.47139,-1.572149 -7.47139,2.266613 0,2.706451 3.14062,4.654321 5.52025,3.423766 l 0.69559,-0.35971 -0.251,0.72002 c -0.40667,1.166584 -2.25534,3.038641 -3.45198,3.495644 -1.90398,0.72713 -5.02056,0.0403 -6.82476,-1.504015 -3.76019,-3.218592 -3.86132,-9.271889 -0.2143,-12.82693 4.25531,-4.147975 11.19059,-3.06495 14.65024,2.2878 2.39781,3.709884 2.53067,8.632011 0.31146,11.539326 -0.45862,0.600829 -0.83386,1.147689 -0.83386,1.215239 0,0.0675 0.41766,-0.0902 0.92811,-0.35066 3.25066,-1.658363 4.45987,-4.557892 3.53831,-8.484337 -0.21002,-0.894745 -1.19214,-3.676326 -2.1825,-6.1813 -2.41938,-6.119441 -2.84093,-7.805474 -2.72351,-10.892844 0.0803,-2.110945 0.19021,-2.631411 0.85432,-4.044997 1.34056,-2.853433 4.03985,-5.138265 7.02655,-5.94766 1.14895,-0.311365 5.28632,-0.684477 5.27298,-0.475521 -0.004,0.06825 -0.96657,0.580555 -2.13826,1.138371 -3.85072,1.833274 -5.96717,4.674897 -6.2015,8.326379 -0.0998,1.554979 -0.0298,1.906263 0.75923,3.812454 0.47803,1.154814 1.62572,3.609899 2.55041,5.455752 2.32391,4.638979 2.95009,6.5597 2.97192,9.115947 0.0148,1.728475 -0.0803,2.250157 -0.62172,3.412924 -0.9027,1.93854 -2.5209,3.554073 -5.75751,5.748002 -4.0253,2.72854 -4.70778,3.62161 -4.45841,5.83401 0.23613,2.095 1.89638,3.39822 4.06386,3.18995 1.9894,-0.19116 2.94463,-1.639 1.98512,-3.00888 -0.51148,-0.73024 0.0205,-0.72364 1.11481,0.0138 2.1046,1.41829 1.75613,4.11587 -0.6622,5.12631 -0.99532,0.41587 -3.76204,0.40537 -4.95113,-0.0188 z m 28.87631,-10.39781 c 1.45165,-0.94915 3.54853,-3.214007 4.62148,-4.99168 1.22478,-2.02926 2.28625,-5.369275 2.62562,-8.261739 1.16653,-9.942601 -4.96591,-20.681227 -14.56836,-25.510871 -2.43195,-1.223177 -5.48703,-2.246297 -8.57838,-2.872828 -2.41104,-0.488652 -3.3788,-0.547198 -8.94462,-0.541149 -5.70956,0.0064 -6.55793,0.06257 -9.96171,0.661713 -4.48297,0.78912 -9.81336,2.161971 -14.04241,3.616645 -1.71629,0.590357 -3.15346,1.040994 -3.1937,1.001411 -0.12545,-0.123397 1.90298,-1.694386 4.03385,-3.124151 4.34531,-2.91562 11.4008,-5.832568 17.05241,-7.049985 5.84054,-1.258112 13.76923,-1.619894 18.87759,-0.86138 13.41962,1.992622 24.96396,11.537858 28.56064,23.614881 0.84141,2.825301 1.041,7.306077 0.44584,10.008836 -1.44798,6.575619 -6.32947,11.386916 -14.18385,13.979927 -1.17936,0.38935 -2.52236,0.78187 -2.98444,0.87228 l -0.84015,0.16436 1.08019,-0.70627 z M 240.21799,82.090212 c -6.9909,-1.629168 -11.65849,-5.09485 -13.10012,-9.726804 -0.49224,-1.581567 -0.81255,-4.557598 -0.53302,-4.952337 0.62445,-0.881832 6.30368,-1.094172 8.78301,-0.328377 4.96107,1.532319 8.38567,6.43484 8.96922,12.83997 l 0.15308,1.680288 -1.43385,-1.924882 c -2.45605,-3.297125 -5.40243,-5.422642 -7.9992,-5.770621 l -1.08019,-0.144753 1.20021,0.585796 c 2.54746,1.243349 5.40951,3.827416 7.23375,6.531136 0.84934,1.258832 1.00725,1.814663 0.50757,1.786746 -0.16502,-0.0092 -1.38023,-0.268494 -2.70046,-0.576162 z m 11.52198,-60.42148 c 0.39606,-0.279857 1.65163,-1.448945 2.79013,-2.597974 2.41417,-2.436474 3.7412,-4.777515 3.94519,-6.959721 l 0.12341,-1.320227 -0.56457,1.461331 c -1.13944,2.949346 -4.35007,6.967266 -6.40515,8.015694 -0.52254,0.266574 -1.06239,0.484683 -1.19967,0.484683 -0.38751,0 -0.30208,-4.01688 0.12017,-5.650545 0.45044,-1.742714 1.64135,-3.601865 3.03279,-4.734547 0.57101,-0.464824 2.06437,-1.4571861 3.31858,-2.2052584 2.46578,-1.4707082 4.12704,-2.9253416 4.57446,-4.0054866 0.15514,-0.37456 0.37911,-0.621059 0.4977,-0.547766 0.72007,0.445028 2.07407,4.345785 2.28089,6.570999 0.16319,1.755909 -0.26967,3.880689 -1.13688,5.580556 -0.82356,1.614325 -2.99087,3.597641 -5.01596,4.590155 -1.88637,0.924519 -5.07583,1.847493 -6.33947,1.834539 l -0.74175,-0.008 0.72013,-0.508823 z"
     style="fill:#cd669a;fill-opacity:1" />
</svg>
