<?xml version="1.0" encoding="UTF-8" standalone="no"?>
<svg
   xmlns:dc="http://purl.org/dc/elements/1.1/"
   xmlns:cc="http://creativecommons.org/ns#"
   xmlns:rdf="http://www.w3.org/1999/02/22-rdf-syntax-ns#"
   xmlns:svg="http://www.w3.org/2000/svg"
   xmlns="http://www.w3.org/2000/svg"
   viewBox="0 0 600 200"
   height="200"
   width="600"
   version="1.1"
   id="svg6946">
  <metadata
     id="metadata6952">
    <rdf:RDF>
      <cc:Work
         rdf:about="">
        <dc:format>image/svg+xml</dc:format>
        <dc:type
           rdf:resource="http://purl.org/dc/dcmitype/StillImage" />
        <dc:title></dc:title>
      </cc:Work>
    </rdf:RDF>
  </metadata>
  <defs
     id="defs6950" />
  <path
     id="path7496"
     d="m 116.19529,173.4047 0.19126,-16.1774 4.98131,-2.00652 c 9.05835,-3.6488 15.69453,-5.05195 23.83911,-5.04051 6.8145,0.01 8.47379,0.30674 18.8578,3.37726 l 11.38584,3.36675 15.29973,0.0433 c 16.14888,0.0457 20.48613,-0.36545 38.78302,-3.67612 20.51845,-3.71263 20.32348,-3.70413 31.81928,-1.3867 18.63662,3.75695 24.98242,4.48593 38.63063,4.43769 14.42055,-0.0509 23.59698,-1.35871 37.00398,-5.27346 10.46706,-3.05631 13.39057,-2.93235 25.73157,1.09108 12.45633,4.06103 18.17807,4.93638 29.39816,4.49753 8.31057,-0.32504 9.5533,-0.57111 18.31132,-3.6257 11.92335,-4.15859 17.447,-5.02868 28.31992,-4.46101 9.4603,0.49392 14.04896,1.42265 25.61815,5.18508 7.78809,2.53277 7.87555,2.54361 17.25666,2.13848 l 9.42891,-0.40721 0,17.04746 0,17.04744 -187.52396,0 -187.52396,0 0.19127,-16.17741 z m 18.36074,12.25147 c 1.1481,-0.59371 2.57322,-2.01882 3.16693,-3.16693 2.70399,-5.22892 0.0673,-9.93554 -6.63199,-11.83818 -4.36169,-1.23875 -6.2573,-2.53995 -5.49562,-3.77236 0.83812,-1.3561 4.54661,-0.91259 5.37931,0.64333 0.58709,1.09699 1.49,1.42323 3.93892,1.42323 3.60729,0 3.87942,-0.61869 1.7838,-4.05562 -1.68614,-2.76535 -5.88043,-4.12352 -10.56487,-3.42105 -5.31677,0.79731 -8.35352,5.2422 -6.55234,9.59064 1.03548,2.49987 2.94924,3.84935 7.17624,5.06032 3.87659,1.11058 4.92987,1.87162 4.92987,3.56204 0,3.18861 -4.69554,3.13121 -6.41327,-0.0784 -0.58154,-1.08662 -1.49384,-1.40692 -4.00734,-1.40692 -3.19246,0 -3.24522,0.0372 -2.77323,1.95694 0.68542,2.78778 2.35109,5.13446 4.16222,5.864 2.55454,1.02897 9.62837,0.81439 11.90137,-0.36103 z m 19.16313,-5.50297 c 0.91459,-3.62034 1.88758,-7.01774 2.1622,-7.54978 0.29655,-0.57451 0.99074,1.01488 1.70943,3.91389 2.78638,11.23937 2.1826,10.21833 6.04252,10.21833 l 3.42758,0 2.48831,-12.45326 2.48831,-12.45327 -3.37896,0 -3.37895,0 -0.90462,6.08047 c -0.49755,3.34425 -1.12268,6.21523 -1.3892,6.37994 -0.26652,0.16472 -0.86407,-1.39628 -1.3279,-3.46888 -2.07612,-9.27707 -1.89574,-8.99153 -5.68002,-8.99153 l -3.39451,0 -1.28304,5.51502 c -1.84292,7.92158 -2.20433,8.13511 -3.21065,1.89692 -1.21524,-7.53315 -1.13775,-7.41194 -4.73787,-7.41194 -1.71937,0 -3.12613,0.11016 -3.12613,0.24478 0,0.45082 4.14654,20.72231 4.64428,22.70481 0.44887,1.78788 0.78051,1.95694 3.83882,1.95694 l 3.34751,0 1.66289,-6.58244 z m 27.78018,-5.87082 0,-12.45327 -3.55808,0 -3.55807,0 0,11.97886 c 0,6.58837 0.21348,12.19234 0.47441,12.45326 0.26092,0.26093 1.86206,0.47441 3.55808,0.47441 l 3.08366,0 0,-12.45326 z m 11.01156,3.75308 c -0.0102,-4.58941 0.19173,-8.1119 0.44866,-7.82776 0.25692,0.28413 0.99113,2.92434 1.63156,5.86714 2.30416,10.58765 2.33883,10.6608 5.05441,10.6608 2.71557,0 2.75025,-0.0732 5.05441,-10.6608 1.81386,-8.33472 2.51019,-7.816 2.37015,1.76561 l -0.1248,8.53939 2.75466,0 2.75465,0 0.19471,-12.27537 0.19471,-12.27536 -4.85499,0 -4.85498,0 -1.60483,7.11615 c -0.88266,3.91389 -1.73032,7.11616 -1.88369,7.11616 -0.15338,0 -1.00103,-3.20227 -1.88369,-7.11616 l -1.60484,-7.11615 -4.83817,0 -4.83818,0 0,11.97886 c 0,6.58837 0.22872,12.20757 0.50828,12.48713 0.27955,0.27956 1.64051,0.41298 3.02436,0.29651 l 2.51609,-0.21177 -0.0185,-8.34438 z m 30.3263,-0.37291 c 0.069,-9.75851 0.12954,-9.71256 2.81075,2.13484 l 1.57021,6.93825 2.6204,0 2.62038,0 2.18727,-9.07309 2.18726,-9.07309 0.0859,9.07309 0.0859,9.07309 2.84646,0 2.84647,0 0,-12.45326 0,-12.45327 -4.59808,0 -4.59807,0 -0.70724,2.66856 c -0.38899,1.46771 -1.05017,4.26969 -1.46929,6.22663 -1.29203,6.03264 -1.53035,5.91874 -3.35026,-1.60114 l -1.76526,-7.29405 -4.56497,0 -4.56498,0 0,12.45327 0,12.45326 2.84646,0 2.84646,0 0.0642,-9.07309 z m 31.9585,-3.38017 0,-12.45327 -3.55807,0 -3.55808,0 0,12.45327 0,12.45326 3.55808,0 3.55807,0 0,-12.45326 z m 11.53798,5.57204 0.20367,-6.88123 4.2539,6.88123 4.25389,6.88122 3.39597,0 3.39597,0 0,-12.45326 0,-12.45327 -3.53137,0 -3.53138,0 -0.2046,6.43521 -0.20461,6.43519 -3.91388,-6.41276 -3.91389,-6.41278 -3.38017,-0.0224 -3.38017,-0.0225 0,12.45326 0,12.45327 3.1765,0 3.1765,0 0.20367,-6.88123 z m 39.87621,4.86371 2.66857,-1.65664 0,-5.309 0,-5.30902 -5.51503,0.20784 -5.51501,0.20784 0,2.13484 c 0,1.8884 0.26699,2.1606 2.31275,2.35784 3.0871,0.29765 3.15178,2.45907 0.11127,3.7185 -4.54855,1.88406 -7.73101,-1.08286 -7.75064,-7.22569 -0.0189,-5.93125 4.49574,-9.06567 8.13432,-5.64741 1.2239,1.1498 1.94068,1.28205 4.19402,0.77384 3.51806,-0.79345 3.61837,-0.93633 2.36246,-3.36501 -1.50561,-2.91153 -4.2657,-4.13452 -9.30213,-4.12176 -8.22981,0.0209 -12.15951,4.15692 -12.15951,12.79808 0,5.59275 1.7726,9.46292 5.22428,11.40634 2.99878,1.68843 11.8609,1.12382 15.23465,-0.97059 z m 24.58247,-2.7004 0.20964,-4.36211 3.92835,-0.32577 c 5.62259,-0.46626 7.74983,-2.69143 7.74983,-8.10657 0,-3.45586 -0.25389,-4.17771 -1.99663,-5.67674 -1.83501,-1.57842 -2.59819,-1.71743 -9.4289,-1.71743 l -7.43228,0 0,12.49226 0,12.49225 3.38017,-0.21689 3.38018,-0.21689 0.20964,-4.36211 z m 0.14617,-12.40594 c 0,-2.83359 0.0463,-2.88708 2.31274,-2.66855 1.79095,0.17268 2.36521,0.59308 2.54528,1.86328 0.30212,2.13116 -1.0388,3.69682 -3.16612,3.69682 -1.50387,0 -1.6919,-0.32135 -1.6919,-2.89155 z m 33.51858,15.50854 c 3.74766,-2.50361 5.02364,-5.64048 4.75568,-11.69137 -0.24294,-5.48601 -1.28958,-7.64177 -5.08653,-10.47659 -2.66861,-1.99241 -9.11223,-2.00662 -12.55665,-0.0277 -7.17639,4.12306 -7.53274,18.1249 -0.56933,22.37037 3.41994,2.08509 10.20599,1.99698 13.45683,-0.17472 z m -10.35074,-5.65918 c -0.6658,-0.95056 -1.10777,-3.09284 -1.10777,-5.36945 0,-3.0729 0.3297,-4.1176 1.74669,-5.53459 2.13107,-2.13108 3.20001,-2.18269 5.6293,-0.27181 1.63414,1.28541 1.875,1.9964 1.875,5.53458 0,5.17021 -1.3145,7.22284 -4.6255,7.22284 -1.68367,0 -2.74379,-0.47663 -3.51772,-1.58157 z m 36.98179,5.84005 c 3.26568,-2.0183 4.87186,-5.76927 4.88747,-11.41383 0.0224,-8.10482 -4.01167,-12.39034 -11.66336,-12.39034 -7.50433,0 -11.64424,4.54802 -11.63807,12.78535 0.005,5.63991 2.71662,10.51131 6.65416,11.9507 2.74676,1.0041 9.49221,0.46956 11.7598,-0.93188 z m -9.90198,-5.34878 c -2.7951,-2.79509 -1.91162,-11.19243 1.30626,-12.41587 5.1724,-1.96654 8.52232,4.44495 5.76742,11.03837 -0.8965,2.14563 -1.35438,2.4678 -3.50724,2.4678 -1.36188,0 -2.96678,-0.49064 -3.56644,-1.0903 z m 36.5694,3.58096 0,-3.20227 -5.33712,0 -5.33711,0 0,-9.251 0,-9.251 -3.55808,0 -3.55807,0 0,12.45327 0,12.45326 8.89519,0 8.89519,0 0,-3.20226 z m 31.58512,1.7162 c 1.79338,-1.41067 3.99563,-4.82444 3.99563,-6.19372 0,-0.34888 -1.238,-1.00523 -2.75111,-1.45857 -3.41536,-1.02327 -3.65342,-1.02266 -3.65342,0.009 0,1.57106 -2.35551,3.4362 -4.33963,3.4362 -2.79098,0 -4.19975,-2.33167 -4.19975,-6.95102 0,-3.0729 0.3297,-4.1176 1.74669,-5.53459 2.22237,-2.22237 3.59002,-2.20436 5.70252,0.0751 1.57476,1.69919 1.88651,1.76839 4.63428,1.02848 l 2.94595,-0.79326 -1.28809,-2.19942 c -2.21552,-3.78306 -4.7578,-5.17098 -9.47166,-5.17098 -6.92529,0 -10.77949,3.86119 -11.25136,11.27177 -0.36358,5.70985 1.50175,10.4036 4.97632,12.52197 3.34281,2.03805 10.33859,2.01581 12.95363,-0.0412 z m 25.20756,0.0455 c 4.26645,-2.60118 6.21945,-9.86508 4.40675,-16.39024 -1.98208,-7.1349 -12.70766,-10.06352 -18.62398,-5.08526 -2.91909,2.45625 -4.14823,5.60568 -4.14823,10.62898 0,4.9207 1.617,8.3898 4.98094,10.68598 3.16317,2.15915 9.97246,2.24082 13.38452,0.16054 z m -10.14154,-5.8339 c -0.68835,-0.98275 -1.10777,-3.11865 -1.10777,-5.64127 0,-3.54678 0.23889,-4.24762 1.89085,-5.54705 3.69427,-2.90592 7.36014,0.0477 7.36014,5.93004 0,4.76635 -1.40222,6.83985 -4.62549,6.83985 -1.68368,0 -2.7438,-0.47663 -3.51773,-1.58157 z m 24.51037,3.71642 0,-3.55808 -3.20227,0 -3.20226,0 0,3.55808 0,3.55807 3.20226,0 3.20227,0 0,-3.55807 z M 177.58546,153.89682 c -3.13111,-0.36257 -9.53565,-1.84213 -14.23231,-3.2879 -7.96633,-2.45228 -9.16019,-2.62956 -17.79038,-2.64174 -9.98925,-0.0141 -13.82717,0.67764 -22.32812,4.02442 -2.88715,1.13666 -5.35054,1.96548 -5.47421,1.84181 -0.12365,-0.12366 4.10306,-7.8313 9.39271,-17.12809 l 9.61754,-16.90325 8.94544,0.19877 8.94544,0.19879 9.3271,16.33956 9.3271,16.33957 0.19106,-16.53594 0.19106,-16.53593 10.75999,0.19637 10.75997,0.19637 3.91949,10.14051 c 2.15572,5.57728 4.11262,10.13744 4.34869,10.13367 0.23605,-0.004 1.52388,-2.96585 2.86184,-6.58244 1.33797,-3.61658 3.16165,-8.25678 4.05263,-10.31158 l 1.61997,-3.73597 29.21539,0 29.21538,0 0,3.91388 0,3.91389 -13.52069,0 -13.52069,0 0,2.84646 0,2.84646 12.84807,0 12.84805,0 -0.21689,3.38016 -0.21689,3.38018 -12.63117,0.19432 -12.63117,0.19433 0,3.18584 0,3.18585 15.29973,0 15.29972,0 0,-13.52068 0,-13.52069 15.12182,0.0313 c 23.90026,0.0494 29.22101,1.15248 32.0737,6.6495 1.20461,2.32123 1.27706,3.04598 0.54779,5.48007 -0.93455,3.11925 -4.50468,5.98377 -8.43821,6.77047 -1.26561,0.25313 -2.29285,0.66037 -2.28275,0.90498 0.0101,0.24462 1.28037,1.02646 2.82284,1.73741 1.74482,0.80423 4.22505,3.07827 6.56409,6.01839 l 3.75959,4.72574 0.19133,-16.18208 0.19132,-16.18209 7.99225,0.20109 7.99225,0.20109 0.40322,5.69292 c 0.22176,3.1311 0.46193,5.29356 0.53371,4.80545 0.2567,-1.74576 5.2102,-6.47401 8.30786,-7.93008 4.78859,-2.25091 9.21652,-3.01557 17.57248,-3.03461 8.70219,-0.0199 14.21161,1.26707 18.68427,4.36433 2.7097,1.87643 6.14883,6.40507 4.88547,6.43317 -0.31567,0.007 -3.59618,0.47275 -7.29004,1.03495 -6.56063,0.99853 -6.73985,0.98826 -7.74286,-0.44374 -2.34718,-3.35107 -9.78145,-4.49197 -14.36146,-2.204 -3.47305,1.73498 -5.15884,5.2546 -4.72956,9.87444 0.18649,2.0069 0.76356,4.32864 1.28239,5.15942 3.20576,5.13324 15.19289,4.74483 18.22931,-0.59069 1.43402,-2.51984 1.54259,-2.53158 9.25257,-1.00115 3.23869,0.64288 5.98816,1.04342 6.10993,0.89007 0.12177,-0.15334 3.17984,-5.48249 6.79571,-11.84255 l 6.5743,-11.56374 8.82868,0 8.82867,0 4.61789,7.11615 c 2.53984,3.91388 4.86754,7.11495 5.17265,7.11349 1.31496,-0.006 5.18028,-2.9169 5.18028,-3.90076 0,-0.81905 -0.85441,-1.07788 -3.55808,-1.07788 l -3.55807,0 0,-4.98131 0,-4.98131 7.82777,0 7.82776,0 0.004,4.09179 0.004,4.09179 1.59761,-1.94303 c 3.67048,-4.4641 13.44949,-6.43143 27.03194,-5.43824 6.58648,0.48162 15.24276,3.11851 15.03079,4.57869 -0.0533,0.36725 -1.25674,1.60643 -2.67428,2.75375 l -2.57734,2.08601 -2.66284,-1.32455 c -1.92385,-0.95696 -4.75965,-1.4087 -10.21842,-1.62779 -7.68525,-0.30846 -10.59065,0.31904 -10.59065,2.28729 0,1.37467 1.36623,1.80434 11.50778,3.61909 10.67079,1.90945 16.29337,4.22997 18.3954,7.59202 2.88446,4.61352 0.42096,9.89325 -6.10619,13.08668 -3.50048,1.71263 -4.42018,1.86761 -8.56351,1.44312 -2.55301,-0.26157 -8.70615,-1.7689 -13.67364,-3.34963 -4.96749,-1.58074 -10.92359,-3.25955 -13.23577,-3.73071 -3.72209,-0.75844 -6.39972,-2.55007 -5.362,-3.58779 0.19047,-0.19046 3.67483,-0.40813 7.74303,-0.48371 7.32021,-0.136 7.41149,-0.11714 8.82496,1.82325 2.66088,3.6528 8.17343,4.88283 12.94606,2.8887 2.91329,-1.21725 3.29197,-3.38276 0.86666,-4.95601 -0.88062,-0.57124 -4.64328,-1.55203 -8.36147,-2.17953 -11.44885,-1.93217 -18.5148,-4.87768 -19.55377,-8.15117 -0.41876,-1.31938 -0.6162,-1.24334 -2.58046,0.99383 -1.16985,1.33239 -3.55311,2.96716 -5.29612,3.63283 -1.74301,0.66566 -3.16911,1.37154 -3.16911,1.56862 0,0.19708 0.96068,1.91963 2.13485,3.82789 1.17416,1.90827 2.13484,3.62488 2.13484,3.81468 0,0.18982 -4.02114,0.34512 -8.93588,0.34512 -10.19673,0 -12.83821,0.52043 -22.73099,4.47848 -6.46974,2.58852 -7.85036,2.87835 -15.19883,3.19071 l -8.08268,0.34357 1.22627,-1.87153 c 0.67446,-1.02935 1.1094,-1.8702 0.96653,-1.86855 -0.14287,0.002 -1.8351,0.8022 -3.76052,1.77904 -4.69822,2.38355 -6.78707,2.25393 -15.8316,-0.98242 -7.69036,-2.7518 -12.4174,-3.93308 -19.03263,-4.75621 -2.52266,-0.3139 -4.05797,-0.99709 -5.51502,-2.45414 l -2.01915,-2.01916 0,2.3666 c 0,2.30511 -0.12482,2.40402 -4.80341,3.8065 -9.65618,2.8946 -12.78349,3.62827 -20.45893,4.79961 l -7.82777,1.19458 -3.20227,-3.81399 c -6.88307,-8.1974 -8.87268,-9.88604 -11.64849,-9.88604 l -2.58429,0 0,6.7739 c 0,6.65312 -0.0285,6.76773 -1.60114,6.42717 -0.88062,-0.19071 -4.16294,-0.69371 -7.29405,-1.11779 -3.13111,-0.42408 -10.00864,-1.73995 -15.2834,-2.92417 -12.78521,-2.87036 -18.71652,-2.81036 -34.17385,0.3457 l -11.74165,2.39741 -0.35581,-11.82193 c -0.19569,-6.50207 -0.55755,-11.3416 -0.80413,-10.75451 -0.24657,0.58708 -2.2914,5.87082 -4.54407,11.74165 -2.25267,5.87082 -4.6099,11.08622 -5.23828,11.58975 -0.77005,0.61706 -2.97396,0.84905 -6.76029,0.71162 l -5.61778,-0.20392 -4.85036,-12.45326 -4.85036,-12.45327 -0.21242,12.45327 -0.21242,12.45326 -1.77903,0.0995 c -0.97847,0.0547 -4.34086,-0.19721 -7.47196,-0.55979 z m -26.70689,-12.52665 c -0.0117,-0.29353 -1.24827,-3.09552 -2.74789,-6.22663 l -2.72659,-5.69292 -2.58922,5.60386 c -1.42407,3.08212 -2.58921,5.88411 -2.58921,6.22663 0,0.34253 2.4017,0.62278 5.33711,0.62278 2.93541,0 5.32752,-0.24017 5.3158,-0.53372 z m 268.10439,-0.3558 c -2.05813,-5.25907 -5.11764,-11.15689 -5.55415,-10.70674 -0.30197,0.31142 -1.67536,3.04798 -3.05197,6.08124 l -2.5029,5.51502 5.72857,0 c 4.2941,0 5.64139,-0.22275 5.38045,-0.88952 z m -115.24415,-8.04602 c 0.86986,-0.60927 1.58157,-1.69086 1.58157,-2.40352 0,-2.38627 -1.93158,-3.11928 -8.39433,-3.18555 l -6.19378,-0.0635 -0.21689,3.38017 -0.2169,3.38017 5.92938,0 c 4.21482,0 6.38671,-0.32033 7.51095,-1.10777 z m -187.57525,-21.13021 0.22299,-2.31274 187.86641,0 187.8664,0 0.22299,2.31274 0.22299,2.31276 -188.31238,0 -188.31239,0 0.22299,-2.31276 z m 0.74545,-6.07544 c 0.6315,-2.41488 38.71744,-54.64755 60.17069,-82.520647 l 8.90034,-11.563742 14.80775,0 14.80774,0 3.85898,4.803398 c 2.12244,2.641872 12.2635,16.491687 22.5357,30.77736 25.25075,35.116588 25.41449,35.307764 33.79814,39.461759 7.78665,3.858199 16.11942,5.605615 27.04138,5.670681 9.95519,0.05936 14.84082,-0.797768 20.38873,-3.576801 8.30789,-4.161556 8.20624,-10.755887 -0.2268,-14.712452 -4.02158,-1.886832 -13.56507,-4.169306 -30.48035,-7.289885 -25.83065,-4.765301 -36.84927,-9.662709 -41.48199,-18.437338 -2.34889,-4.448942 -2.17137,-11.634494 0.41769,-16.906769 7.00167,-14.257967 32.40898,-23.3480292 65.25921,-23.3480292 17.46683,0 36.85348,3.2611252 48.56773,8.1698202 1.05519,0.44215 1.24533,0.12129 1.24533,-2.101477 l 0,-2.623314 43.94224,0.318842 c 47.46845,0.344414 49.12694,0.464512 61.73262,4.470196 12.66418,4.024288 18.51157,9.634768 20.98617,20.135931 1.88354,7.992968 -1.28659,18.063077 -7.31747,23.244334 -6.41882,5.514551 -17.45409,9.349743 -31.81489,11.056929 -3.71819,0.442006 -16.68738,1.012064 -28.82041,1.266788 l -22.06007,0.463123 -0.20103,7.133572 -0.20103,7.133572 -9.76158,1.573683 c -5.36887,0.865522 -16.96669,3.499204 -25.77293,5.852619 -26.6237,7.115047 -41.45584,9.394137 -61.55471,9.458447 -18.48572,0.0591 -31.97022,-2.15308 -55.35802,-9.081856 -31.37485,-9.294962 -46.42643,-11.846309 -61.05099,-10.34857 -17.50837,1.793096 -27.6964,4.61696 -46.19506,12.804132 -10.49951,4.646894 -14.85129,6.300324 -25.526,9.698424 -0.65218,0.20762 -0.86326,-0.11796 -0.63711,-0.98273 z m 97.3191,-43.73762 c -2.35248,-3.620341 -6.59595,-10.183346 -9.42991,-14.58446 -2.83398,-4.401106 -5.36928,-8.003663 -5.63402,-8.005667 -0.50208,-0.0038 -8.56162,11.27729 -16.13905,22.590127 l -4.40897,6.582444 19.94461,0 19.94459,0 -4.27724,-6.582444 z m 152.29117,-17.887964 0,-24.470407 -12.27536,7.023979 -12.27536,7.023972 -3.55807,-1.768335 c -10.37107,-5.154333 -33.16396,-6.055135 -43.01324,-1.699937 -10.687,4.725626 -9.85822,11.875123 1.91487,16.518824 1.66198,0.655528 9.98788,2.789099 18.502,4.741255 26.36678,6.045487 36.02914,9.068216 45.36805,14.192718 2.73971,1.503364 5.06136,2.772749 5.15921,2.820858 0.0978,0.04812 0.1779,-10.9242 0.1779,-24.382927 z m 76.80592,8.51693 c 8.02015,-2.04864 12.14066,-5.811866 12.14066,-11.087898 0,-3.817764 -2.3281,-6.961206 -6.5958,-8.905764 -5.61468,-2.5583 -11.37713,-3.18043 -29.51335,-3.18632 l -16.54505,-0.0053 0,12.531821 0,12.53182 17.96828,-0.354578 c 13.37332,-0.263901 19.13873,-0.653555 22.54526,-1.523707 z"
     style="fill:#cd669a;fill-opacity:1" />
</svg>
