<?xml version="1.0" encoding="UTF-8" standalone="no"?>
<svg
   xmlns:dc="http://purl.org/dc/elements/1.1/"
   xmlns:cc="http://creativecommons.org/ns#"
   xmlns:rdf="http://www.w3.org/1999/02/22-rdf-syntax-ns#"
   xmlns:svg="http://www.w3.org/2000/svg"
   xmlns="http://www.w3.org/2000/svg"
   viewBox="0 0 600 200"
   height="200"
   width="600"
   version="1.1"
   id="svg8171">
  <metadata
     id="metadata8177">
    <rdf:RDF>
      <cc:Work
         rdf:about="">
        <dc:format>image/svg+xml</dc:format>
        <dc:type
           rdf:resource="http://purl.org/dc/dcmitype/StillImage" />
        <dc:title></dc:title>
      </cc:Work>
    </rdf:RDF>
  </metadata>
  <defs
     id="defs8175" />
  <path
     id="path8721"
     d="m 269.88106,195.71378 c -0.83805,-0.99597 -1.28612,-2.2603 -1.52233,-4.29554 -0.34495,-2.97221 0.009,-10.84543 0.72944,-16.22252 0.3656,-2.72903 0.28991,-3.28915 -0.71041,-5.2563 -1.24876,-2.45564 -6.34641,-10.17061 -7.90156,-11.9584 -1.16824,-1.34305 -0.64629,-1.75007 -5.77114,4.50034 -4.76935,5.8168 -12.35583,13.5949 -16.58018,16.99893 -9.86366,7.94828 -20.8163,11.82513 -29.81315,10.5528 -2.07604,-0.29358 -4.25256,-0.807 -4.83672,-1.14093 -1.02955,-0.58854 -1.01331,-0.61182 0.52981,-0.75978 0.87555,-0.0839 2.25157,0.0773 3.05783,0.35838 2.15317,0.75059 7.46025,0.62255 10.43511,-0.25179 8.99532,-2.64377 21.70434,-12.79821 31.93238,-25.5138 3.4664,-4.30946 3.85262,-4.98006 3.30211,-5.73363 -0.34288,-0.46935 -2.27258,-3.03174 -4.28821,-5.69418 -2.01564,-2.66244 -4.27346,-5.81283 -5.01737,-7.00087 -1.20886,-1.93053 -2.0381,-2.50354 -7.80351,-5.39228 -5.53203,-2.7718 -15.12724,-6.39017 -19.76496,-7.45337 l -1.36791,-0.31359 3.21609,6.11514 c 2.77544,5.27733 9.16033,16.18431 11.90168,20.33105 0.4778,0.72274 0.77798,1.31408 0.66707,1.31408 -0.6736,0 -15.45896,-17.55322 -21.41132,-25.41956 -3.54548,-4.68555 -2.77349,-4.37143 -12.78221,-5.20086 -8.37656,-0.69415 -15.49962,0.0575 -19.42078,2.04933 -2.91355,1.48001 -6.28595,4.93399 -7.50118,7.68266 -1.52157,3.44158 -1.5329,8.90006 -0.0276,13.3339 4.55992,13.43184 18.80626,22.13565 38.64316,23.60905 2.54687,0.18918 4.28945,0.51673 4.12911,0.77617 -0.3263,0.52796 -6.33928,0.13125 -13.50414,-0.89096 -20.54829,-2.93162 -34.93284,-15.77887 -34.93123,-31.19805 9.3e-4,-8.00542 4.97026,-13.59603 14.33499,-16.12687 3.41074,-0.92177 16.86767,-1.21055 23.07953,-0.49529 l 3.24894,0.3741 -2.47582,-3.4801 c -17.6257,-24.775327 -27.53139,-45.888124 -29.62387,-63.139723 -0.7733,-6.375659 -0.31864,-16.580638 0.96958,-21.762136 2.49377,-10.030441 9.24616,-20.258041 16.74778,-25.367295 6.86378,-4.6748244 13.08658,-6.6992457 20.59255,-6.6992457 5.97446,0 10.53707,0.9723583 15.52039,3.3076227 7.60017,3.56156 12.55817,7.566216 18.29603,14.777999 5.9453,7.47252 9.29059,13.090592 13.22593,22.211655 l 2.02689,4.697785 2.23164,-3.127374 c 3.08426,-4.32219 8.34667,-9.060377 12.13302,-10.9244 2.89747,-1.426426 3.53854,-1.555597 7.70985,-1.55349 3.99828,0.002 4.84139,0.15606 6.95796,1.271308 3.28423,1.73048 6.21896,5.060007 8.15662,9.253899 0.89104,1.928465 1.62004,3.735423 1.62004,4.015465 0,0.746562 0.30315,0.669925 4.52788,-1.144631 6.09181,-2.616491 9.3122,-3.271962 14.86247,-3.025116 4.15726,0.184893 5.2694,0.423768 8.06599,1.732439 6.26231,2.930478 10.97984,9.217038 13.23504,17.636914 1.44045,5.378037 1.44017,15.01244 0,20.8661 -2.86594,11.643581 -10.73705,25.630244 -22.74985,40.425544 -8.29077,10.21117 -28.02239,30.24725 -35.79828,36.35066 -0.75691,0.5941 0.93534,-2.0112 3.77556,-5.81264 5.53159,-7.40373 17.06616,-24.57864 21.47504,-31.97621 7.05161,-11.83179 12.65302,-24.83016 14.15034,-32.83666 0.81908,-4.379631 0.36666,-10.809989 -0.97671,-13.882345 -1.47568,-3.374946 -5.45116,-7.008789 -8.73449,-7.983819 -6.88604,-2.044935 -15.76451,0.476943 -24.30499,6.903664 -5.83464,4.390612 -15.01109,14.702628 -20.80726,23.38223 -4.36144,6.53111 -3.84809,6.33448 -6.05956,2.32102 -7.3897,-13.411071 -17.81689,-20.620995 -27.64057,-19.112184 -3.49958,0.537501 -5.17382,1.513166 -6.3444,3.697225 l -0.76832,1.433536 0.22727,-2.487715 c 0.27898,-3.053739 2.25588,-7.21606 4.48687,-9.447054 3.33276,-3.332763 9.48748,-4.455714 15.64006,-2.853593 4.86426,1.266649 10.25417,5.218378 14.35365,10.523697 1.20316,1.557121 2.36438,3.013939 2.58041,3.237374 0.21603,0.223436 2.07992,-2.034384 4.14197,-5.017378 2.062,-2.982993 4.99855,-6.928836 6.52569,-8.768542 4.0884,-4.925316 13.95147,-14.751272 17.65506,-17.588628 1.774,-1.359078 3.22545,-2.617862 3.22545,-2.797293 0,-0.483374 -2.79548,-1.264394 -5.31421,-1.484714 -6.48322,-0.567107 -12.17211,1.513681 -16.80511,6.146689 -3.21676,3.21676 -7.38945,9.027496 -9.48122,13.203254 -0.88535,1.767402 -1.71723,3.21625 -1.84864,3.219656 -0.1314,0.0033 -1.52731,-2.50878 -3.10203,-5.58265 -10.85025,-21.179833 -24.42354,-32.320175 -37.00573,-30.372634 -4.8197,0.746022 -8.20644,2.48167 -11.66258,5.976886 -7.82394,7.912396 -11.3599,22.477978 -9.37301,38.609956 1.34284,10.902715 7.2579,28.982682 13.59146,41.543622 l 1.57439,3.1224 3.92476,0.87476 c 5.15846,1.14973 13.22142,3.83009 17.63046,5.86087 1.94243,0.89467 3.61162,1.62666 3.70931,1.62666 0.0977,0 -0.34421,-0.82662 -0.98198,-1.83692 -4.43351,-7.02311 -10.95259,-23.12284 -12.24189,-30.2329 -0.67227,-3.70731 -0.32678,-4.0869 0.73995,-0.81301 4.15966,12.76622 14.35162,34.36006 16.54617,35.05658 1.39038,0.44129 9.46603,5.86538 12.51138,8.40338 1.53416,1.27859 2.93186,2.32084 3.106,2.31612 0.34864,-0.009 1.58014,-1.83246 7.78501,-11.52406 2.29418,-3.5834 4.91474,-7.99153 5.82346,-9.79583 2.65381,-5.26933 3.0043,-5.56895 6.57826,-5.62323 5.80715,-0.0882 6.5202,0.59367 4.76655,4.55813 -1.5452,3.49311 -5.73085,22.90855 -8.15271,37.817 l -0.99187,6.10544 1.67098,4.17653 c 3.85674,9.63955 4.16854,16.3775 0.91503,19.77342 -1.06197,1.10845 -1.69741,1.35005 -3.55077,1.35005 -1.91368,0 -2.43816,-0.21488 -3.44494,-1.41138 z m 4.73526,-2.21545 c 0.36741,-0.87933 0.66802,-2.85684 0.66802,-4.39447 0,-2.66216 -1.10181,-7.54595 -1.88949,-8.37522 -0.52076,-0.54826 -1.60155,9.83745 -1.22061,11.72928 0.75036,3.72642 1.23374,3.93236 2.44208,1.04041 z m -1.74629,-43.62348 c 1.32784,-7.96865 2.41431,-14.72026 2.41431,-15.00361 0,-0.28334 -2.10247,2.58757 -4.67213,6.3798 -2.56971,3.79222 -5.59132,8.11201 -6.71473,9.59951 l -2.04265,2.70456 3.02108,3.74636 c 1.66157,2.06049 3.52507,4.56403 4.14111,5.5634 0.61598,0.99939 1.19175,1.74537 1.27933,1.65775 0.0876,-0.0876 1.2458,-6.67912 2.57368,-14.64777 z m -17.66582,5.3666 1.18401,-1.73816 -3.14944,-2.91757 c -3.81448,-3.53368 -7.86519,-6.49806 -7.46919,-5.4661 0.51985,1.35472 7.50147,11.86657 7.87918,11.86325 0.20429,-0.002 0.90425,-0.78544 1.55544,-1.74142 z m 60.23569,39.36945 c -2.31798,-0.82833 -3.8393,-3.25623 -3.8393,-6.12719 0,-1.25846 0.53729,-4.50588 1.19399,-7.21647 1.22234,-5.04528 1.54684,-8.71635 0.74539,-8.43256 -0.24737,0.0876 -2.30756,2.48461 -4.57823,5.32667 -5.42106,6.78539 -7.75161,8.19166 -10.23841,6.17797 -1.13355,-0.91789 -1.36597,-3.047 -0.7474,-6.84688 0.40717,-2.50122 0.2891,-2.40353 -3.09061,2.55712 -3.90505,5.73174 -6.75851,7.80992 -9.04389,6.58681 -0.71716,-0.38381 -1.00019,-0.99998 -1.00019,-2.17749 0,-2.35748 1.94484,-10.92197 2.57468,-11.33815 0.95206,-0.62908 5.0817,-0.41563 5.34724,0.27639 0.13552,0.35315 -0.21499,1.8046 -0.77884,3.22546 -0.56391,1.42086 -1.44491,3.64003 -1.95778,4.93149 -1.29607,3.26358 -0.26611,2.32437 3.90968,-3.56517 3.72146,-5.24876 5.02201,-6.30801 7.4867,-6.09745 2.68124,0.22906 2.93076,1.12138 1.67556,5.99185 -0.59386,2.30435 -1.07415,4.38432 -1.06727,4.62217 0.021,0.73283 1.8744,-1.19335 5.59146,-5.81143 1.95812,-2.43281 4.34925,-4.95942 5.31355,-5.61469 2.2313,-1.51619 4.95115,-1.59444 6.36256,-0.18304 1.25,1.25001 1.09078,2.52496 -1.24608,9.9783 -1.75899,5.61018 -2.23335,10.72126 -1.10024,11.85437 0.9189,0.91889 2.80448,0.67003 5.61158,-0.74066 3.33197,-1.67443 10.79497,-9.00927 11.24323,-11.05013 0.47087,-2.14374 2.86755,-5.17019 4.90465,-6.19339 2.57984,-1.29581 8.63371,-1.76308 10.04403,-0.77526 1.75952,1.23244 2.65166,3.44778 2.33083,5.7882 -0.26276,1.91734 -0.1963,2.0849 0.94026,2.37016 2.02583,0.50844 7.4703,-0.10037 9.50841,-1.06325 1.69119,-0.79898 2.03504,-1.2608 2.98487,-4.00901 0.68627,-1.98562 1.04112,-4.04429 0.98378,-5.70727 -0.0863,-2.50095 -0.0358,-2.61569 1.30757,-2.97498 0.78276,-0.20935 2.21463,-0.15362 3.25566,0.12671 1.84286,0.49623 1.85634,0.51707 1.61398,2.49714 -0.13447,1.09819 -0.41631,2.42678 -0.62636,2.95241 -0.28079,0.70259 0.20527,0.47771 1.83535,-0.84919 1.21951,-0.9927 3.14165,-2.2244 4.27137,-2.73713 3.42591,-1.55483 9.19413,-1.06224 9.82111,0.83871 0.28599,0.86701 -2.49421,0.76411 -3.22751,-0.11946 -2.56603,-3.09186 -13.21262,4.60182 -17.35774,12.54344 -1.64714,3.15581 -1.93891,3.46438 -3.27539,3.46438 -1.57556,0 -1.58779,-0.0794 -0.61079,-3.97221 l 0.3054,-1.21664 -2.26963,0.68304 c -1.24822,0.37568 -4.05748,0.68305 -6.24271,0.68305 l -3.9732,0 -2.11446,2.11448 c -3.18288,3.18289 -7.24252,3.98215 -11.1704,2.19922 -1.11668,-0.50688 -2.26704,-1.44113 -2.55633,-2.07611 -0.51861,-1.13817 -0.57782,-1.10216 -4.18168,2.54432 -5.47462,5.53932 -10.95757,7.9589 -14.86845,6.56135 z m 28.41528,-8.42365 c 1.05125,-0.48518 2.40991,-1.42387 3.01921,-2.08596 l 1.10789,-1.2038 -2.06358,-1.12901 c -1.39727,-0.76446 -2.39462,-1.7848 -3.08894,-3.16013 l -1.0254,-2.03113 -1.45972,1.66253 c -0.80283,0.91439 -1.60245,2.42333 -1.77687,3.35318 -0.48698,2.59579 1.02813,5.45665 2.89818,5.47245 0.26281,0.003 1.33796,-0.39294 2.38923,-0.87813 z m 4.82887,-9.80146 c -0.84861,-2.0309 -1.73645,-2.06606 -2.26499,-0.0897 -0.4261,1.5932 0.1671,3.36619 1.35182,4.04052 1.34069,0.76306 1.88988,-1.61315 0.91317,-3.95083 z m 66.37011,12.16918 c -1.94913,-0.47451 -4.53953,-1.86261 -4.53953,-2.43253 0,-0.81801 2.97263,-0.49973 5.14228,0.55059 1.72841,0.8367 2.70447,0.97698 5.52662,0.79427 4.20523,-0.27224 7.96707,-1.78334 7.96707,-3.2003 0,-1.26695 -1.04495,-1.77744 -5.05154,-2.46794 -1.82093,-0.31382 -3.81579,-0.7596 -4.43307,-0.99062 -0.90585,-0.33906 -1.5509,-0.10771 -3.34492,1.19962 -3.39404,2.47331 -6.84394,4.04652 -11.10589,5.06447 -10.74011,2.56519 -18.11498,1.21308 -18.11498,-3.32121 0,-3.46475 4.39072,-9.05981 8.60121,-10.96036 3.67153,-1.65728 7.64554,-1.05634 7.64554,1.15615 0,1.40155 -2.58658,3.58269 -6.57058,5.54068 -2.29953,1.13013 -4.33893,2.28165 -4.53203,2.55894 -0.80879,1.16146 -0.35685,3.11604 0.91284,3.94797 3.43489,2.25064 16.05216,-0.69872 22.01778,-5.14678 1.13784,-0.84838 1.92036,-1.93404 2.25581,-3.12967 0.39159,-1.39573 1.02173,-2.14409 2.65233,-3.14995 2.30976,-1.42479 6.3629,-2.40907 8.07578,-1.96114 0.89663,0.23447 0.58985,0.51102 -1.95912,1.76594 -2.63857,1.29904 -3.04048,1.67508 -3.16611,2.96216 -0.0792,0.81084 0.1359,1.70492 0.47785,1.98686 0.34194,0.28192 2.62672,0.85769 5.0773,1.27946 5.70805,0.98243 7.36168,1.79601 7.16127,3.5234 -0.18134,1.56289 -3.06939,3.29967 -7.04224,4.23492 -2.81647,0.66303 -11.23726,0.78334 -13.65367,0.19507 z M 397.0345,177.57726 c 2.19485,-1.12897 4.91742,-3.86653 3.84538,-3.86653 -0.83523,0 -4.00917,2.21727 -5.37199,3.7528 -1.12232,1.26456 -0.76279,1.29134 1.52661,0.11373 z"
     style="fill:#cd669a;fill-opacity:1" />
</svg>
